<svg xmlns="http://www.w3.org/2000/svg" xml:space="preserve" width="704.769px" height="159.804px" x="0px" y="0px" viewBox="457.759 209.913 704.769 159.804"><g fill="#FFF"><path d="M671.597 267.3h8.267l-4.34-10.954-3.927 10.954zm-8.681 10.609 12.263-28.865h3.307l12.263 28.865h-6.269l-2.688-7.303h-10.953l-2.963 7.303h-4.96zm28.865-1.308-.344-5.305c2.617 2.342 5.648 3.651 8.611 3.651 1.653 0 2.962-.345 3.996-.965 1.446-1.103 1.722-3.238.551-4.685-.069-.069-.138-.207-.275-.275-.965-1.31-2.963-1.998-7.303-3.996-3.996-1.998-5.994-4.615-5.994-8.267 0-2.343.965-4.341 2.688-5.994 3.651-3.307 9.92-1.998 10.609-1.998 1.309.345 2.342.689 3.307.965l.344 4.96a14.48 14.48 0 0 0-3.65-1.998c-3.996-1.309-8.268-.344-8.268 2.963 0 1.653.965 2.687 3.307 3.996 4.961 2.687 7.647 3.65 9.301 5.993 2.342 2.618 2.342 8.267-1.309 10.954-1.998 1.309-4.341 2.342-7.647 2.342-3.583-.412-6.614-1.721-7.924-2.341zm27.489 1.308V252.35c-2.342 0-4.96.344-8.611.688l.345-4.34h22.183l.345 4.34c-4.616-.688-7.303-.688-8.611-.688v25.214h-5.649v.345h-.002zm28.865-3.031c4.616 0 8.612-3.651 8.612-11.574 0-.688 0-6.958-3.996-10.265-1.309-.964-2.687-1.309-4.616-1.309-5.993 0-8.611 5.649-8.611 11.573.344 7.993 4.34 11.575 8.611 11.575zm0 3.652c-8.611 0-14.604-6.27-14.604-14.949 0-8.956 5.993-14.95 14.604-14.95 8.612 0 14.605 5.994 14.605 14.95 0 8.679-5.993 14.949-14.605 14.949zm19.22-.621v-28.865h2.963l17.223 19.564v-19.564h3.996v28.865h-2.963l-17.223-19.565v19.565h-3.996zm39.821 0 3.307-28.865h2.962l10.265 20.254 9.921-20.254h2.962l3.308 28.865h-5.994l-1.653-17.912-7.923 16.604h-2.687l-8.267-16.604-1.653 17.567h-4.616l.068.345zm43.401-10.609h8.267l-4.34-10.954-3.927 10.954zm-8.611 10.609 12.263-28.865h3.307l12.263 28.865h-6.269l-2.618-7.303h-10.954l-2.962 7.303h-5.03zm35.479-15.914c.688 0 1.653.345 2.342.345 4.616 0 5.994-2.687 5.994-4.96 0-3.651-2.618-4.961-5.994-4.961h-1.998v9.646l-.344-.07zm-5.304 16.259v-28.866c1.653-.344 3.651-.344 6.613-.344 2.687 0 4.96.344 6.613.964 2.618.965 5.994 2.963 5.994 7.303 0 1.653-.689 3.307-1.653 4.96-.965 1.31-2.618 2.343-4.616 2.963l10.266 12.951h-6.614l-8.956-12.263h-1.998v12.263h-5.648v.069zm29.83-.345V252.35c-2.343 0-4.961.344-8.611.688l.344-4.34h22.184l.345 4.34c-4.616-.688-7.303-.688-8.612-.688v25.214h-5.648v.345h-.002zm17.912-28.865h5.648v28.865h-5.648v-28.865zm11.228 28.865v-28.865h2.963l17.223 19.564v-19.564h3.996v28.865h-2.963l-17.223-19.565v19.565h-3.996z"/><path d="M1161.21 215.218c-1.997-3.307-5.648-5.305-9.92-5.305H867.18c-4.615 0-11.918 0-19.564 7.646-1.998 2.067-3.721 4.409-4.961 6.958-2.342 4.341-3.995 7.303-11.918 7.303h-41.404c-7.646 0-9.645-2.962-11.918-7.303-1.309-2.342-2.687-4.615-4.96-6.958-7.647-7.646-14.95-7.646-19.565-7.646H468.985c-4.615 0-8.267 1.998-9.92 5.305-1.998 3.307-1.653 7.646.688 11.298l4.961 8.611c2.617 4.616 6.269 5.305 8.955 5.994 2.343.345 3.996.688 5.649 3.996l4.616 7.922c3.65 6.614 7.646 7.303 10.609 7.923 2.342.345 4.615.688 7.646 5.993 2.963 5.305 7.303 13.228 18.257 16.604.964.344 105.748 30.863 106.093 30.863 10.954 3.651 13.916 7.646 17.223 12.607 1.998 2.962 7.647 10.953 20.875 14.604l100.788 27.212c10.954 2.963 17.567-2.342 20.874-5.305l18.257-17.223c2.687-2.342 3.995-3.307 5.649-3.307 1.653 0 2.962.965 5.648 3.307l18.257 17.223c3.307 2.688 9.92 7.923 20.874 5.305l100.789-27.212c13.571-3.651 18.876-11.573 20.874-14.604 3.307-4.961 6.269-9.301 17.223-12.607 0 0 104.784-30.52 106.094-30.863 10.609-3.307 15.225-11.299 18.256-16.604 2.963-5.305 4.96-5.648 7.303-5.993 2.962-.689 7.303-1.309 10.954-7.923l4.615-7.922c1.998-3.308 3.307-3.651 5.649-3.996 2.618-.689 6.269-1.309 8.956-5.994l4.96-8.611c2.206-3.995 2.551-7.991.553-11.298zm-193.93 23.217v49.739H652.996v-49.739H967.28zM854.573 361.406c-7.647 0-10.265-6.614-12.263-11.919-2.343-5.993-14.605-45.055-18.257-55.664h15.569c8.268 14.261 23.562 39.475 30.175 50.084 1.31 1.998 4.616 7.647 10.609 11.299-23.835 6.2-23.215 6.2-25.833 6.2zm36.788-9.92c-8.611 0-13.228-6.613-15.914-10.954-5.649-8.955-18.532-30.519-28.177-46.777h17.223c10.954 11.574 33.826 35.824 42.782 45.056 1.309 1.309 4.34 4.34 8.611 6.958-21.218 5.372-21.218 5.717-24.525 5.717zm35.135-9.577c-6.613 0-11.574-4.615-14.949-7.922-7.923-7.923-26.868-27.833-38.441-40.439h18.876c11.918 8.955 39.475 29.141 50.359 36.443a54.581 54.581 0 0 0 10.609 5.305c-24.456 6.613-23.767 6.613-26.454 6.613zm44.436-18.6c-2.963 4.616-5.305 6.958-10.609 6.958-4.961 0-9.921-2.342-14.261-5.305-8.956-6.269-29.83-21.219-43.126-31.139h22.596c27.488 13.571 39.131 19.909 46.777 22.183l3.996.965c-2.411 1.723-3.72 3.996-5.373 6.338zm8.266-12.951c-6.269 0-14.604-4.341-39.751-16.879h24.525l34.446 8.611c2.343.689 4.616.965 6.614 1.653-19.496 5.995-22.527 6.615-25.834 6.615zm66.963-18.533c-20.254 5.993-23.562 7.303-29.142 7.303-3.995 0-8.955-.689-17.223-2.962l-27.212-6.959v-9.645l73.577 12.263zm21.219-5.993c-6.614 1.653-12.607.964-21.907-.689l-72.268-11.918v-7.647l118.355 13.228-24.18 7.026zm44.434-22.183c-.964 1.653-1.997 3.307-2.962 4.616-3.995 5.648-6.613 5.305-19.221 3.995l-117.047-13.227v-7.303l134.959 7.923c.964 0 3.651.344 6.613.344-.687.965-1.652 2.343-2.342 3.652zm22.874-22.252s-2.688 4.34-3.652 6.613c-3.995 6.27-5.993 6.27-17.223 5.305l-140.884-8.267v-5.993h163.411c-.619 1.033-.964 1.722-1.652 2.342zm20.253-18.532-3.651 6.27c-2.687 3.996-3.651 3.996-12.263 3.996h-293.41c2.962-3.651 3.996-7.303 7.303-10.609 5.648-5.649 10.265-5.649 14.604-5.649h284.11c1.998 0 3.307.688 3.995 1.653.277 1.032.277 2.685-.688 4.339zM780.308 359.752c1.31-1.653 2.343-3.995 3.996-7.922 2.342-5.994 15.225-46.777 18.876-58.007h14.261c3.651 11.573 16.603 52.082 18.876 58.007 1.31 3.995 2.618 6.269 3.996 7.922-.345-.344-.965-.688-1.309-.964l-18.257-17.223c-2.962-2.618-5.993-5.305-10.265-5.305-4.34 0-7.647 2.617-10.265 5.305l-18.257 17.223c-.688.345-1.308.689-1.652.964zm-40.44-4.96c5.993-3.651 9.645-9.3 10.609-11.298 6.613-10.265 21.907-35.824 30.175-50.084h15.569c-3.307 10.608-15.914 49.739-18.257 55.664-1.997 5.305-4.615 11.918-12.262 11.918-2.617.414-1.997.414-25.834-6.2zm-35.135-9.3c4.34-2.343 7.303-5.305 8.611-6.958 8.956-8.956 32.173-33.481 42.782-45.056h17.223c-9.645 16.259-22.527 37.821-28.177 46.777-2.687 4.341-7.303 10.954-15.914 10.954-3.306.277-3.651-.068-24.525-5.717zm-37.132-10.265c4.616-1.309 8.611-3.995 10.609-5.305 10.954-7.302 38.441-27.487 50.36-36.443h18.876c-11.574 12.607-30.519 32.517-38.441 40.439-3.307 3.307-7.923 7.923-14.95 7.923-2.617.068-2.274.068-26.454-6.614zm-23.217-18.531c1.31-.345 2.688-.345 3.996-.965 7.923-2.342 19.565-8.267 46.777-22.183h22.528c-13.572 9.92-34.171 24.869-43.127 31.139-3.996 2.962-9.301 5.305-14.261 5.305-5.305 0-7.646-2.343-10.609-6.958-1.653-2.067-3.306-4.34-5.304-6.338zm-28.865-12.608c1.998-.345 4.34-.965 6.613-1.653l34.446-8.611h24.525c-25.215 12.606-33.481 16.878-39.751 16.878-3.581-.344-6.613-.964-25.833-6.614zm32.172-24.525v9.645l-27.213 6.959c-8.267 1.997-13.227 2.962-17.223 2.962-5.649 0-8.956-1.31-29.142-7.303l73.578-12.263zm-118.356-.689 118.356-13.228v7.646l-72.268 11.919c-9.646 1.653-15.57 2.342-21.908.688.001-.067-24.18-7.025-24.18-7.025zm-23.217-18.877c2.687-.344 5.649-.344 6.614-.344l134.959-7.923v7.303L530.644 272.26c-12.606 1.31-15.225 1.653-19.221-3.995-.964-1.31-1.998-2.963-2.962-4.616-.69-1.309-1.31-2.687-2.343-3.652zm-21.839-20.529h163.412v5.993l-140.884 8.268c-11.299.688-13.228.964-17.224-5.305-1.24-2.205-2.479-4.409-3.651-6.614-.688-1.033-1.376-1.722-1.653-2.342zm-19.22-20.943c.689-.965 1.998-1.653 3.996-1.653h284.109c4.34 0 9.301 0 14.605 5.649 3.307 3.307 4.34 6.958 7.303 10.609H481.593c-8.611 0-9.645 0-12.263-3.996l-3.651-6.27c-.964-1.653-1.309-3.306-.62-4.339z"/></g></svg>