<svg xmlns="http://www.w3.org/2000/svg" xml:space="preserve" style="fill-rule:evenodd;clip-rule:evenodd;stroke-linejoin:round;stroke-miterlimit:2" viewBox="0 0 358 112"><path d="M63.3 32c0 17.3-14 31.3-31.3 31.3S.7 49.3.7 32 14.7.7 32 .7s31.3 14 31.3 31.3ZM32 2.6C15.7 2.6 2.6 15.7 2.6 32c0 16.3 13.2 29.4 29.4 29.4 16.3 0 29.4-13.2 29.4-29.4C61.4 15.7 48.3 2.6 32 2.6Z" style="fill:url(#a);fill-rule:nonzero" transform="translate(.418 .06) scale(1.73959)"/><path d="M32 2.6C15.7 2.6 2.6 15.7 2.6 32c0 16.3 13.2 29.4 29.4 29.4 16.3 0 29.4-13.2 29.4-29.4C61.4 15.7 48.3 2.6 32 2.6Zm0 56.9C16.8 59.5 4.5 47.2 4.5 32S16.8 4.5 32 4.5 59.5 16.8 59.5 32 47.2 59.5 32 59.5Z" style="fill:url(#b);fill-rule:nonzero" transform="translate(.418 .06) scale(1.73959)"/><path d="M32 63.3c17.3 0 31.3-14 31.3-31.3S49.3.7 32 .7.7 14.7.7 32s14 31.3 31.3 31.3ZM32 0c17.6 0 32 14.4 32 32S49.6 64 32 64 0 49.6 0 32 14.4 0 32 0Z" style="fill:url(#c);fill-rule:nonzero" transform="translate(.418 .06) scale(1.73959)"/><path d="M2.2 32.1C2.2 15.7 15.5 2.2 32 2.2s29.8 13.4 29.8 29.9c0 16.4-13.3 29.7-29.8 29.7S2.2 48.5 2.2 32.1Zm9.3-20.6c-5.3 5.3-8.6 12.6-8.6 20.6 0 8 3.3 15.3 8.5 20.5 5.3 5.2 12.6 8.5 20.6 8.5 8 0 15.3-3.2 20.5-8.5 5.3-5.2 8.5-12.5 8.5-20.5s-3.3-15.3-8.5-20.6C47.3 6.2 40 2.9 32 2.9s-15.3 3.3-20.5 8.6Z" style="fill:#fff;fill-rule:nonzero" transform="translate(.418 .06) scale(1.73959)"/><path d="M32 59.6c-7.4 0-14.3-2.9-19.5-8.1C7.3 46.3 4.4 39.4 4.4 32s2.9-14.3 8.1-19.5C17.7 7.3 24.6 4.4 32 4.4s14.3 2.9 19.5 8.1c5.2 5.2 8.1 12.1 8.1 19.5s-2.9 14.3-8.1 19.5c-5.2 5.2-12.1 8.1-19.5 8.1Zm0-.8c7.1 0 13.9-2.8 18.9-7.8 5.1-5.1 7.8-11.8 7.8-18.9 0-7.1-2.8-13.9-7.8-18.9C45.8 8.1 39.1 5.4 32 5.4c-7.1 0-13.9 2.8-18.9 7.8C8 18.1 5.2 24.9 5.2 32c0 7.1 2.8 13.9 7.8 18.9 5.1 5.1 11.9 7.9 19 7.9Z" style="fill:url(#d);fill-rule:nonzero" transform="translate(.418 .06) scale(1.73959)"/><path d="M56.3 45c-.5-.4-19.8-15.7-19.8-15.7L32 3.6c-.3.1-.7.4-.9.8l-3.2 25L8 44.7s-.4.5-.6.8c-.1.2-.1.5-.1.8l24.6-10.1 24.6 10.1c.2-.5 0-1-.2-1.3Z" style="fill:#fff;fill-rule:nonzero" transform="translate(.418 .06) scale(1.73959)"/><path d="m32.2 32.8-.2 4.6 22.6 9.1c.8.4 1.4.2 2-.2L32.5 32.7c-.1-.1-.3 0-.3.1Z" style="fill:#565f64;fill-rule:nonzero" transform="translate(.418 .06) scale(1.73959)"/><path d="M32.2 32.8s1.3 2.3 2.8 3.9c2.1 2.3 4.9 3.9 4.9 3.9l14.7 5.9c.8.4 1.4.2 2-.2L32.5 32.7c-.1-.1-.3 0-.3.1Z" style="fill:url(#e);fill-rule:nonzero" transform="translate(.418 .06) scale(1.73959)"/><path d="M56.5 45.4c0-.1-.1-.2-.2-.4L35.7 29.9l-2.8 1.8s.2.1.3 0c.3-.1.9-.2 1.5 0 .5.2 21.8 13.8 21.8 13.8v-.1Z" style="fill:#a4aaae;fill-opacity:.6;fill-rule:nonzero" transform="translate(.418 .06) scale(1.73959)"/><path d="M55.8 44.5 36.6 29.3l-.9.6 20.6 15.2c-.1-.2-.3-.4-.5-.6Z" style="fill:#333e46;fill-rule:nonzero" transform="translate(.418 .06) scale(1.73959)"/><path d="m32.5 31.3-.1.1s0 .2.2.1c.1-.1 3-1.6 4-2.2l-3.5-24c-.1-.9-.5-1.3-1.2-1.6l.4 27.8.2-.2Z" style="fill:#565f64;fill-rule:nonzero" transform="translate(.418 .06) scale(1.73959)"/><path d="M30.8 5.3v1.3l-2.2 22.1c0 .3.1.6.4.8l1.3 1 .9-24.4.1-1.9c-.3.2-.4.6-.5 1.1ZM29.6 30.9l-1.2-1L8.1 44.6s-.6.4-.7.8l.7-.4 21.3-13.4c.4-.2.5-.4.2-.7Z" style="fill:#a4aaae;fill-opacity:.6;fill-rule:nonzero" transform="translate(.418 .06) scale(1.73959)"/><path d="M31.7 32.8c0-.1-.1-.2-.2-.1L7.3 46.4c.6.4 1.2.5 2 .2l22.6-9.1-.2-4.7Z" style="fill:#565f64;fill-rule:nonzero" transform="translate(.418 .06) scale(1.73959)"/><path d="m32.4 31.4.1-.1-.1.1s0 .1.1.1h.1c.1-.1 3-1.6 4-2.2l-.4-2.9-3.1-21.1c0-.4-.1-.7-.3-.9 0 0 1.5 20.2 1.5 22.4 0 2.9-1.9 4.6-1.9 4.6Z" style="fill:url(#f);fill-rule:nonzero" transform="translate(.418 .06) scale(1.73959)"/><path d="M31.7 32.8c0-.1-.1-.2-.2-.1L7.3 46.4c.6.4 1.2.5 2 .2l22.6-9.1-.2-4.7Z" style="fill:url(#g);fill-rule:nonzero" transform="translate(.418 .06) scale(1.73959)"/><path d="m9.3 46.5 22.6-9.1-.2-4.4c-.4 1.2-1.1 2.5-3 3.5-1.4.8-14.8 7.4-19.6 9.7-.3.2-.7.3-.9.4.4.2.7.1 1.1-.1Z" style="fill:url(#h);fill-rule:nonzero" transform="translate(.418 .06) scale(1.73959)"/><path d="m32.5 31.3-.1.1s0 .2.2.1c.1-.1 3-1.6 4-2.2l-3.5-24c-.1-.9-.5-1.3-1.2-1.6l.4 27.8.2-.2Z" style="fill:url(#i);fill-rule:nonzero" transform="translate(.418 .06) scale(1.73959)"/><path d="m32.5 31.3-.1.1s0 .2.2.1c.1-.1 3-1.6 4-2.2l-3.5-24c-.1-.9-.5-1.3-1.2-1.6l.4 27.8.2-.2Z" style="fill:url(#j);fill-rule:nonzero" transform="translate(.418 .06) scale(1.73959)"/><path d="M5.1 44.4C4.4 42.8.4 35 4.8 20H3.1c-.9 3-1.6 4.8-2 7.5 0 0-.2 1-.3 2.1C.7 30.7.7 31.3.7 32c0 6 1.5 9.5 1.5 9.5 1.6 5 4.4 9.5 8.2 12.9 3.3 2.9 8.4 5.1 12.6 5.9-.7-.1-12.7-5.2-17.9-15.9Z" style="fill:url(#k);fill-rule:nonzero" transform="translate(.418 .06) scale(1.73959)"/><path d="M32.4 32.6h-.9c.1 0 .2 0 .2.1l.2 4.6h.1l.2-4.6c0-.1.1-.2.2-.1Z" style="fill:url(#l);fill-rule:nonzero" transform="translate(.418 .06) scale(1.73959)"/><path d="M42 2.3c10.5 4 20.4 15 20.4 28.9C62.4 48 49 61.7 32 61.7v1.6c17 0 31.3-14 31.3-31.3 0-13.8-8.8-25.4-21.3-29.7Z" style="fill:url(#m);fill-rule:nonzero" transform="translate(.418 .06) scale(1.73959)"/><path d="M32.3.7H32h.3Z" style="fill:url(#n);fill-rule:nonzero" transform="translate(.418 .06) scale(1.73959)"/><path d="M58.8 20.2C51.8 4.1 36 3.2 35.1 3.1H35c12.1 2.2 19.8 10.1 22.5 18.4v.1c1.2 3.2 1.8 6.6 1.9 10.3.1 3.5-.7 7.4-2.2 11-.1.5-.2 1.1-.3 1.1h1.6c4.8-9 2.7-18.1.3-23.8Z" style="fill:url(#o);fill-rule:nonzero" transform="translate(.418 .06) scale(1.73959)"/><path d="M2.2 32.1C2.2 15.7 15.5 2.2 32 2.2s29.8 13.4 29.8 29.9c0 16.4-13.3 29.7-29.8 29.7S2.2 48.5 2.2 32.1Zm9.3-20.6c-5.3 5.3-8.6 12.6-8.6 20.6 0 8 3.3 15.3 8.5 20.5 5.3 5.2 12.6 8.5 20.6 8.5 8 0 15.3-3.2 20.5-8.5 5.3-5.2 8.5-12.5 8.5-20.5s-3.3-15.3-8.5-20.6C47.3 6.2 40 2.9 32 2.9s-15.3 3.3-20.5 8.6Z" style="fill:#fbfbfb;fill-rule:nonzero" transform="translate(.418 .06) scale(1.73959)"/><path d="m7.9 44.8 20.4-14.7c1.1.6 2.9 1.4 3.1 1.4.2.1.2-.1.2-.1l-2.5-2.1c-.3-.2-.4-.5-.4-.8l2.4-24.1c-.1.1-.1.3-.2.4-.1.2-.1.3-.1.5l-3.5 24.1L8.1 44.5c-.1.1-.2.2-.2.3Z" style="fill:#333f47;fill-rule:nonzero" transform="translate(.418 .06) scale(1.73959)"/><path d="M402.56 94.47h35.65c.58 0 1.06-.48 1.06-1.06v-8.9c0-.58-.48-1.06-1.06-1.06h-17.52c-.58 0-1.06.48-1.06 1.06v1.61c0 .58.48 1.06 1.06 1.06h11.51c.19 0 .35.16.35.35v1.72c0 .19-.16.35-.35.35h-22.91c-.58 0-1.06-.48-1.06-1.06v-6.6c0-.58.48-1.06 1.06-1.06h28.93c.58 0 1.06-.48 1.06-1.06V77.4c0-.58-.48-1.06-1.06-1.06h-35.65c-.58 0-1.06.48-1.06 1.06v16c-.01.59.47 1.07 1.05 1.07Zm-9.98 0h4.6c.58 0 1.06-.48 1.06-1.06v-16c0-.58-.48-1.06-1.06-1.06h-5.17c-.21 0-.4.05-.58.17l-12.61 8.23c-.36.23-.8.23-1.16 0l-12.61-8.23a.987.987 0 0 0-.58-.17h-5.17c-.58 0-1.06.48-1.06 1.06v16c0 .58.48 1.06 1.06 1.06h4.6c.58 0 1.06-.48 1.06-1.06v-9.64c0-.18.09-.34.25-.43.16-.09.35-.08.5.01l9.76 6.12c.18.11.35.16.56.16h4.38c.21 0 .39-.05.56-.16l9.76-6.12c.16-.1.34-.1.5-.01.16.09.26.25.26.43v9.64c.03.58.51 1.06 1.09 1.06Zm-38.65 0h-4.6c-.58 0-1.06-.48-1.06-1.06v-2.82c0-.19-.16-.35-.35-.35h-24.19c-.34 0-.63.14-.84.41l-2.53 3.27c-.28.36-.67.55-1.12.55h-6.32a.47.47 0 0 1-.44-.28.47.47 0 0 1 .05-.52l13.07-16.91c.21-.27.5-.41.84-.41h27.49c.58 0 1.06.48 1.06 1.06v16c0 .58-.47 1.06-1.06 1.06Zm-5.66-9.25v-3.97c0-.19-.16-.35-.35-.35h-17.14c-.23 0-.42.1-.56.27l-3.05 3.95c-.07.09-.08.2-.03.3.05.1.14.16.25.16h20.53a.37.37 0 0 0 .35-.36Zm-79.39 9.25h-15.17a.47.47 0 0 1-.44-.28.47.47 0 0 1 .05-.52l13.07-16.91c.21-.27.5-.41.84-.41h15.02c.22 0 .41.12.51.32.1.2.07.42-.06.6l-12.98 16.79c-.21.27-.5.41-.84.41Zm11.03 0h-7.18a.47.47 0 0 1-.44-.28.47.47 0 0 1 .05-.52l13.07-16.91c.21-.27.5-.41.84-.41h7.04c.22 0 .41.12.51.32.1.2.07.42-.06.6l-12.98 16.79c-.22.27-.51.41-.85.41Zm9.89 0h-5.55a.47.47 0 0 1-.44-.28.47.47 0 0 1 .05-.52l13.07-16.91c.21-.27.5-.41.84-.41h5.4c.22 0 .41.12.51.32.1.2.08.42-.06.6l-12.98 16.79c-.21.27-.5.41-.84.41Zm8.93 0h-3.87a.47.47 0 0 1-.44-.28.47.47 0 0 1 .05-.52l13.07-16.91c.21-.27.5-.41.84-.41h3.73c.22 0 .41.12.51.32.1.2.07.42-.06.6l-12.98 16.79c-.22.27-.51.41-.85.41Zm8.56 0h-2.85a.47.47 0 0 1-.44-.28.47.47 0 0 1 .05-.52l13.07-16.91c.21-.27.5-.41.84-.41h2.7c.22 0 .41.12.51.32.1.2.07.42-.06.6l-12.98 16.79c-.21.27-.5.41-.84.41Z" style="fill:#fff" transform="translate(-82.5 -54.16)"/><path d="M241.22 104.47c-1.03-.64-3.05-.94-6.17-.94h-13.57v18.25h2.89v-7h10.68c3.13 0 5.15-.3 6.17-.93 1.05-.64 1.58-1.83 1.58-3.52V108c.01-1.69-.52-2.88-1.58-3.53Zm-1.47 4.22v.85c0 1.13-.25 1.87-.73 2.19-.52.35-1.62.53-3.28.53h-11.36v-6.29h11.36c1.66 0 2.77.18 3.28.53.48.33.73 1.07.73 2.19ZM251.64 106.02h16.53v-2.49H248.8v18.25h19.37v-2.49h-16.53v-5.73h15.84v-2.49h-15.84v-5.05ZM272.35 106.02h9.49v15.76h2.89v-15.76h9.48v-2.49h-21.86v2.49ZM319.71 104.46c-1.04-.63-3.06-.94-6.19-.94h-13.93v18.25h2.89v-6.96h11.36c2.41 0 3.32.31 3.66.58.48.37.72 1.1.72 2.17v4.21h2.89v-4.65c0-1.09-.29-1.97-.87-2.6-.36-.39-.83-.69-1.4-.88.74-.24 1.29-.55 1.66-.93.54-.56.81-1.43.81-2.59V108c.01-1.7-.53-2.89-1.6-3.54Zm-1.41 4.23v.85c0 1.1-.25 1.84-.73 2.18-.52.36-1.62.54-3.27.54h-11.81v-6.29h11.81c1.65 0 2.75.18 3.27.55.48.35.73 1.08.73 2.17ZM350.1 104.6c-.64-.47-1.48-.8-2.52-1-1.01-.19-2.55-.29-4.57-.29h-6.4c-2.02 0-3.56.1-4.57.29-1.03.2-1.88.53-2.52 1-.72.53-1.24 1.26-1.56 2.18-.31.9-.46 2.11-.46 3.61v4.84c0 1.37.16 2.5.47 3.35.32.87.85 1.58 1.58 2.12.65.47 1.49.81 2.5 1 .99.19 2.54.28 4.59.28h6.37c2.07 0 3.62-.1 4.61-.28 1.01-.19 1.84-.53 2.48-1 .7-.51 1.22-1.23 1.54-2.13.32-.88.48-2.04.48-3.45v-4.94c0-1.4-.16-2.55-.48-3.44-.32-.91-.84-1.63-1.54-2.14Zm-5.96 14.83h-8.66c-1.21 0-2.14-.1-2.79-.29-.62-.18-1.1-.49-1.44-.91-.25-.3-.43-.67-.53-1.08-.11-.44-.16-1.19-.16-2.22v-4.66c0-1.03.05-1.78.16-2.22.1-.42.28-.78.53-1.08.34-.42.83-.72 1.44-.9.64-.19 1.58-.29 2.79-.29h8.66c1.21 0 2.14.1 2.78.29.61.18 1.1.49 1.44.9.23.29.4.64.5 1.03.11.42.16 1.09.16 2v5.21c0 .9-.05 1.57-.16 1.99-.1.4-.27.75-.5 1.04-.34.42-.83.72-1.44.91-.64.18-1.57.28-2.78.28ZM382.7 103.53h-2.88v15.39l-16.96-15.39h-4.1v18.25h2.9v-15.63l17.21 15.63h3.83v-18.25ZM398.63 103.53l-11.44 18.25h3.32l2.44-3.91h14.95l2.51 3.91h3.13l-11.47-18.25h-3.44Zm-4.19 11.96 5.94-9.46 6.04 9.46h-11.98ZM439.25 113.53c-.3-.69-.81-1.24-1.52-1.62-.48-.27-1.12-.46-1.91-.58-.77-.11-1.92-.17-3.43-.17h-6.88c-2.07 0-3.43-.2-4.06-.6-.6-.38-.89-1.08-.89-2.14 0-1.04.3-1.73.91-2.1.65-.39 1.96-.59 3.89-.59h6.53c1.89 0 3.14.19 3.7.57.53.36.79 1.08.79 2.15v.53h2.8v-.77c0-.89-.11-1.64-.33-2.23-.22-.61-.58-1.11-1.06-1.49-.57-.44-1.36-.75-2.35-.92-.96-.17-2.66-.25-5.04-.25h-4.35c-3.22 0-5.38.37-6.61 1.14-1.25.78-1.89 2.15-1.89 4.06 0 1.87.56 3.21 1.66 3.99 1.09.77 2.9 1.15 5.53 1.15h8.09c1.64 0 2.73.19 3.23.57.48.36.72 1.07.72 2.1 0 1.26-.35 2.08-1.06 2.51-.75.45-2.41.68-4.95.68h-5c-2.11 0-3.55-.21-4.3-.62-.71-.39-1.05-1.08-1.05-2.1 0-.12.01-.35.03-.69l.05-.62h-2.79l-.04.21c-.01.06-.02.14-.02.24-.03.54-.04.92-.04 1.14 0 1.75.59 3.03 1.76 3.79 1.15.75 2.99 1.12 5.64 1.12h6.5c3.06 0 5.14-.4 6.34-1.21 1.21-.83 1.83-2.28 1.83-4.33.01-1.26-.14-2.24-.43-2.92Z" style="fill:#00a19b;fill-rule:nonzero" transform="translate(-82.5 -54.16)"/><path d="M259.25 136.89v.99h-5.41v6.37h-1.13v-13.27h6.94v.99h-5.81v4.91h5.41v.01ZM273.25 137.6c0 4.04-2.15 6.86-5.19 6.86-3.12 0-5.23-2.81-5.23-6.94 0-3.94 2.19-6.76 5.21-6.76 3.06 0 5.21 2.83 5.21 6.84Zm-9.2-.06c0 3.48 1.63 5.91 3.98 5.91 2.33 0 3.98-2.43 3.98-5.85 0-3.4-1.65-5.83-3.98-5.83-2.3 0-3.98 2.43-3.98 5.77ZM279.43 130.98c2.05 0 2.65.06 3.52.36 1.37.44 2.23 1.69 2.23 3.28 0 1.75-.95 2.94-2.86 3.58l3.64 6.05h-1.39l-3.56-5.89h-2.47v5.89h-1.13v-13.27h2.02Zm.04 6.38c1.75 0 2.19-.04 2.86-.28 1.03-.36 1.61-1.25 1.61-2.49 0-1.13-.52-1.97-1.39-2.33-.64-.24-1.17-.3-3.06-.3h-.95v5.39h.93v.01ZM291.5 130.98l4 12 4-12h1.83v13.27h-1.13v-12.23l-4.12 12.23h-1.13l-4.14-12.23v12.23h-1.13v-13.27h1.82ZM307.05 130.98v7.88c.02 2.39.06 2.75.5 3.36.52.78 1.59 1.23 2.86 1.23 1.43 0 2.57-.56 3.04-1.49.3-.58.32-.91.34-3.1v-7.88h1.13v7.9c0 2.17-.02 2.43-.26 3.1-.56 1.57-2.13 2.49-4.26 2.49-1.91 0-3.36-.74-4.04-2.03-.34-.66-.46-1.31-.46-2.59V130.98h1.15ZM320.67 130.98v12.27h5.65v.99h-6.82v-13.27h1.17v.01ZM334.75 130.88l4.6 13.37h-1.19l-1.29-3.76h-5.09l-1.31 3.76h-1.17l4.6-13.37h.85Zm-.44 1.61-2.23 7h4.44l-2.21-7ZM358.93 137.6c0 4.04-2.15 6.86-5.19 6.86-3.12 0-5.23-2.81-5.23-6.94 0-3.94 2.19-6.76 5.21-6.76 3.06 0 5.21 2.83 5.21 6.84Zm-9.19-.06c0 3.48 1.63 5.91 3.98 5.91 2.33 0 3.98-2.43 3.98-5.85 0-3.4-1.65-5.83-3.98-5.83-2.31 0-3.98 2.43-3.98 5.77ZM364.33 130.98l6.68 11.62v-11.62h1.05v13.27h-1.31l-6.6-11.58v11.58h-1.07v-13.27h1.25ZM383.38 136.89v.99h-5.41v5.37h5.89v.99h-7.02v-13.27h6.94v.99h-5.81v4.91h5.41v.02ZM400.86 130.98v.99h-3.42v12.27h-1.13v-12.27h-3.44v-.99h7.99ZM410.92 136.89v.99h-5.41v5.37h5.89v.99h-7.02v-13.27h6.94v.99h-5.81v4.91h5.41v.02ZM419.61 130.88l4.6 13.37h-1.19l-1.29-3.76h-5.09l-1.31 3.76h-1.17l4.6-13.37h.85Zm-.44 1.61-2.23 7h4.44l-2.21-7ZM429.55 130.98l4 12 4-12h1.83v13.27h-1.13v-12.23l-4.12 12.23H433l-4.14-12.23v12.23h-1.13v-13.27h1.82Z" style="fill:#fff;fill-rule:nonzero" transform="translate(-82.5 -54.16)"/><defs><linearGradient id="a" x1="0" x2="1" y1="0" y2="0" gradientTransform="matrix(48 40.2 -40.2 48 8 11.9)" gradientUnits="userSpaceOnUse"><stop offset="0" style="stop-color:white;stop-opacity:1"/><stop offset="0.1" style="stop-color:#e7e8e6;stop-opacity:1"/><stop offset="0.1" style="stop-color:#cdd0d0;stop-opacity:1"/><stop offset="0.2" style="stop-color:#b5bbbd;stop-opacity:1"/><stop offset="0.2" style="stop-color:#a5acaf;stop-opacity:1"/><stop offset="0.3" style="stop-color:#9ba3a7;stop-opacity:1"/><stop offset="0.3" style="stop-color:#98a0a4;stop-opacity:1"/><stop offset="0.4" style="stop-color:#828a8f;stop-opacity:1"/><stop offset="0.5" style="stop-color:#667075;stop-opacity:1"/><stop offset="0.6" style="stop-color:#535c63;stop-opacity:1"/><stop offset="0.7" style="stop-color:#475158;stop-opacity:1"/><stop offset="0.8" style="stop-color:#434d54;stop-opacity:1"/><stop offset="1" style="stop-color:#475157;stop-opacity:1"/></linearGradient><linearGradient id="b" x1="0" x2="1" y1="0" y2="0" gradientTransform="matrix(45 37.8 -37.8 45 9.5 13.1)" gradientUnits="userSpaceOnUse"><stop offset="0" style="stop-color:#0b1f2a;stop-opacity:1"/><stop offset="0.2" style="stop-color:#333f47;stop-opacity:1"/><stop offset="0.5" style="stop-color:#777f84;stop-opacity:1"/><stop offset="0.5" style="stop-color:#81898d;stop-opacity:1"/><stop offset="0.7" style="stop-color:#b3b8b8;stop-opacity:1"/><stop offset="0.8" style="stop-color:#d2d5d3;stop-opacity:1"/><stop offset="0.8" style="stop-color:#dee0dd;stop-opacity:1"/><stop offset="1" style="stop-color:#fbfbfb;stop-opacity:1"/></linearGradient><linearGradient id="c" x1="0" x2="1" y1="0" y2="0" gradientTransform="scale(-64) rotate(70 .357 -.964)" gradientUnits="userSpaceOnUse"><stop offset="0" style="stop-color:#e1e3e1;stop-opacity:.4"/><stop offset="0.1" style="stop-color:#c1c5c4;stop-opacity:.4"/><stop offset="0.3" style="stop-color:#9ba1a2;stop-opacity:.4"/><stop offset="0.5" style="stop-color:#7d8487;stop-opacity:.4"/><stop offset="0.7" style="stop-color:#687074;stop-opacity:0"/><stop offset="0.8" style="stop-color:#5b6469;stop-opacity:0"/><stop offset="1" style="stop-color:#576065;stop-opacity:0"/></linearGradient><linearGradient id="d" x1="0" x2="1" y1="0" y2="0" gradientTransform="rotate(60 2.086 19.813) scale(55.2)" gradientUnits="userSpaceOnUse"><stop offset="0" style="stop-color:#e1e3e1;stop-opacity:.4"/><stop offset="0.1" style="stop-color:#c1c5c4;stop-opacity:.4"/><stop offset="0.3" style="stop-color:#9ba1a2;stop-opacity:.4"/><stop offset="0.5" style="stop-color:#7d8487;stop-opacity:.4"/><stop offset="0.7" style="stop-color:#687074;stop-opacity:0"/><stop offset="0.8" style="stop-color:#5b6469;stop-opacity:0"/><stop offset="1" style="stop-color:#576065;stop-opacity:0"/></linearGradient><linearGradient id="e" x1="0" x2="1" y1="0" y2="0" gradientTransform="rotate(121 11.273 32.317) scale(3.3)" gradientUnits="userSpaceOnUse"><stop offset="0" style="stop-color:#27343c;stop-opacity:1"/><stop offset="1" style="stop-color:#00111e;stop-opacity:0"/></linearGradient><linearGradient id="f" x1="0" x2="1" y1="0" y2="0" gradientTransform="rotate(-122 27.883 3.55) scale(5.3)" gradientUnits="userSpaceOnUse"><stop offset="0" style="stop-color:#02131f;stop-opacity:1"/><stop offset="0.1" style="stop-color:#02131f;stop-opacity:1"/><stop offset="0.9" style="stop-color:#02131f;stop-opacity:0"/><stop offset="1" style="stop-color:#02131f;stop-opacity:0"/></linearGradient><linearGradient id="g" x1="0" x2="1" y1="0" y2="0" gradientTransform="matrix(-4.2 1.2 -1.2 -4.2 32 36.4)" gradientUnits="userSpaceOnUse"><stop offset="0" style="stop-color:#02131f;stop-opacity:.8"/><stop offset="0.2" style="stop-color:#02131f;stop-opacity:.8"/><stop offset="0.9" style="stop-color:#02131f;stop-opacity:0"/><stop offset="1" style="stop-color:#02131f;stop-opacity:0"/></linearGradient><linearGradient id="h" x1="0" x2="1" y1="0" y2="0" gradientTransform="matrix(-.6 -1.5 1.5 -.6 20.8 41.9)" gradientUnits="userSpaceOnUse"><stop offset="0" style="stop-color:#02131f;stop-opacity:.8"/><stop offset="0.1" style="stop-color:#02131f;stop-opacity:.8"/><stop offset="1" style="stop-color:#02131f;stop-opacity:0"/></linearGradient><linearGradient id="i" x1="0" x2="1" y1="0" y2="0" gradientTransform="matrix(-3.4 .4 -.4 -3.4 35.6 17.2)" gradientUnits="userSpaceOnUse"><stop offset="0" style="stop-color:#02131f;stop-opacity:1"/><stop offset="0.3" style="stop-color:#02131f;stop-opacity:1"/><stop offset="0.3" style="stop-color:#02131f;stop-opacity:1"/><stop offset="0.8" style="stop-color:#02131f;stop-opacity:0"/><stop offset="1" style="stop-color:#02131f;stop-opacity:0"/></linearGradient><linearGradient id="j" x1="0" x2="1" y1="0" y2="0" gradientTransform="rotate(180 17.22 9.673) scale(2.3)" gradientUnits="userSpaceOnUse"><stop offset="0" style="stop-color:#27343c;stop-opacity:1"/><stop offset="0.4" style="stop-color:#27343c;stop-opacity:1"/><stop offset="1" style="stop-color:#3b474e;stop-opacity:0"/></linearGradient><linearGradient id="k" x1="0" x2="1" y1="0" y2="0" gradientTransform="rotate(30 -61.618 15.657) scale(32.2)" gradientUnits="userSpaceOnUse"><stop offset="0" style="stop-color:#24303a;stop-opacity:0"/><stop offset="0" style="stop-color:#25323b;stop-opacity:0"/><stop offset="0.1" style="stop-color:#27343c;stop-opacity:1"/><stop offset="1" style="stop-color:#27343c;stop-opacity:1"/></linearGradient><linearGradient id="l" x1="0" x2="1" y1="0" y2="0" gradientTransform="matrix(0 -4.8 4.8 0 32 37.4)" gradientUnits="userSpaceOnUse"><stop offset="0" style="stop-color:#a5abaf;stop-opacity:1"/><stop offset="0.3" style="stop-color:#a5abaf;stop-opacity:1"/><stop offset="1" style="stop-color:#a5abaf;stop-opacity:0"/></linearGradient><linearGradient id="m" x1="0" x2="1" y1="0" y2="0" gradientTransform="matrix(0 61 -61 0 47.7 2.3)" gradientUnits="userSpaceOnUse"><stop offset="0" style="stop-color:#dee0dd;stop-opacity:1"/><stop offset="0" style="stop-color:#c5c9c7;stop-opacity:1"/><stop offset="0" style="stop-color:#9ea4a5;stop-opacity:1"/><stop offset="0" style="stop-color:#82898c;stop-opacity:1"/><stop offset="0" style="stop-color:#71797d;stop-opacity:1"/><stop offset="0" style="stop-color:#6b7378;stop-opacity:1"/><stop offset="0.2" style="stop-color:#333f47;stop-opacity:1"/><stop offset="0.5" style="stop-color:#27343c;stop-opacity:1"/><stop offset="0.8" style="stop-color:#333f47;stop-opacity:1"/><stop offset="1" style="stop-color:#434d54;stop-opacity:1"/></linearGradient><linearGradient id="n" x1="0" x2="1" y1="0" y2="0" gradientTransform="matrix(0 0 0 0 32.1 .7)" gradientUnits="userSpaceOnUse"><stop offset="0" style="stop-color:#dee0dd;stop-opacity:1"/><stop offset="0" style="stop-color:#c5c9c7;stop-opacity:1"/><stop offset="0" style="stop-color:#9ea4a5;stop-opacity:1"/><stop offset="0" style="stop-color:#82898c;stop-opacity:1"/><stop offset="0" style="stop-color:#71797d;stop-opacity:1"/><stop offset="0" style="stop-color:#6b7378;stop-opacity:1"/><stop offset="0.2" style="stop-color:#333f47;stop-opacity:1"/><stop offset="0.5" style="stop-color:#27343c;stop-opacity:1"/><stop offset="0.8" style="stop-color:#333f47;stop-opacity:1"/><stop offset="1" style="stop-color:#434d54;stop-opacity:1"/></linearGradient><linearGradient id="o" x1="0" x2="1" y1="0" y2="0" gradientTransform="matrix(-13.5 19.8 -19.8 -13.5 57.3 8.1)" gradientUnits="userSpaceOnUse"><stop offset="0" style="stop-color:#27343c;stop-opacity:1"/><stop offset="0.7" style="stop-color:#27343c;stop-opacity:1"/><stop offset="0.7" style="stop-color:#2b373f;stop-opacity:1"/><stop offset="0.7" style="stop-color:#36424a;stop-opacity:1"/><stop offset="0.7" style="stop-color:#49545b;stop-opacity:1"/><stop offset="0.8" style="stop-color:#646d73;stop-opacity:0"/><stop offset="0.8" style="stop-color:#868d92;stop-opacity:0"/><stop offset="0.8" style="stop-color:#b0b5b8;stop-opacity:0"/><stop offset="0.8" style="stop-color:#e1e3e4;stop-opacity:0"/><stop offset="0.8" style="stop-color:white;stop-opacity:0"/><stop offset="1" style="stop-color:white;stop-opacity:0"/></linearGradient></defs></svg>