<svg xmlns="http://www.w3.org/2000/svg" width="266.57999" height="238.01334" viewBox="0 0 266.57999 238.01334"><defs><clipPath id="a" clipPathUnits="userSpaceOnUse"><path d="M0 178.51h199.935V0H0Z"/></clipPath></defs><g clip-path="url(#a)" transform="matrix(1.33333 0 0 -1.33333 0 238.013)"><path d="M0 0c-48.755 0-88.245-39.951-88.245-89.259 0-1.763.057-3.463.125-5.169h-11.524c-.646 0-.971-.393-1.232-.857-.193-.457-10.425-18.661-10.686-19.118-.192-.457-.192-.718.329-.718h26.741C-73.553-151.787-39.879-178.51 0-178.51c48.762 0 88.255 39.951 88.255 89.251C88.255-39.947 48.762 0 .004 0m-63.061-115.121h23.499l-11.335-19.84a71.3 71.3 0 0 0-12.167 19.84M.004-158.078c-18.519 0-35.228 7.466-47.527 19.583h19.104s54.903 97.827 55.096 98.216c.267.4.132.661-.25.661H4.02c-.453 0-.521-.136-.646-.329-.132-.196-30.954-54.481-30.954-54.481h-40.272a66 66 0 0 0-.189 5.173c0 37.98 30.425 68.826 68.048 68.826 19.161 0 36.516-8.058 48.883-21.025C43.521-50.622 19.429-92 16.194-98.027c-1.877 4.391-10.557 3.535-15.023 3.606-1.946-3.274-11.068-20.697-11.068-20.697s5.042.065 9.576 0c4.405-.071 4.927-4.712 3.177-7.661-1.753-2.949-8.943-15.709-8.943-15.709h23.12s28.366 50.09 44.485 78.569a68.5 68.5 0 0 0 6.53-29.336c0-37.983-30.49-68.819-68.048-68.819" style="fill:#e6002d;fill-opacity:1;fill-rule:evenodd;stroke:none" transform="translate(111.68 178.51)"/></g></svg>