<svg xmlns="http://www.w3.org/2000/svg" xml:space="preserve" width="1000px" height="258px" x="0px" y="0px" viewBox="0 371 1000 258"><path d="M526.339 493.329c0 3.992-1.763 6.887-7.219 6.887h-34.833c-4.491 0-7.053-1.297-7.053-5.456 0-4.158 1.763-6.221 7.053-6.221h42.052v4.79zm153.601-16.634v-4.491c0-4.158 1.763-6.887 7.385-6.887h34.832c4.79 0 7.187 1.431 7.187 5.922 0 3.826-1.897 5.589-6.854 5.589l-42.55-.133zm91.453-30.84v73.523h35.231v-53.396h28.744c9.781 0 14.737 3.061 14.737 12.476v41.086h35.165v-43.98c0-20.627-11.378-29.575-43.482-29.575l-70.395-.134zm-86.497 0c-28.312 0-39.655 9.415-39.655 30.674V491.1c0 18.364 11.344 28.278 36.928 28.278h74.354v-19.196h-67.469c-6.653 0-8.949-1.93-8.949-6.887v-3.027h53.23c18.363 0 28.743-5.755 28.743-19.495v-3.326c0-12.476-6.222-21.425-37.394-21.425l-39.788-.167zm-113.113 73.524h35.165v-48.14c0-3.327 1.297-5.289 5.623-5.289h27.18v-19.961H600.66c-20.959 0-28.943 7.817-28.943 20.925l.066 52.465zm-120.198-73.524v19.362h66.039c6.653 0 8.815 2.263 8.815 7.053v2.828h-53.03c-22.223 0-28.91 9.148-28.91 20.793v2.86c0 16.169 12.941 20.627 38.359 20.627h39.023c27.646 0 39.623-6.222 39.623-27.979v-16.967c0-18.397-11.345-28.444-37.062-28.444l-72.857-.133zM241.13 486.909c0 23.287 11.81 32.603 42.351 32.603h67.002v-19.961h-61.879c-7.352 0-12.309-3.327-12.309-13.905v-6.256c0-9.447 4.625-13.307 12.144-13.307h62.044v-19.961h-67.967c-29.941 0-41.386 12.608-41.386 32.769v8.018zm119.766-52.597v85.2h76.517v-19.961H396.16v-65.239h-35.264zm-219.571 47.64v-47.641h-19.961c-12.309 0-19.329 4.924-26.615 10.713L1 519.512h42.35l62.378-50.501v50.501h29.243l60.415-50.833v50.833h35.83v-85.2h-19.528c-10.546 0-17.898 4.325-25.25 10.38l-45.113 37.26z"/><path fill="#FF8000" d="M969.838 372.433c-19.628 0-47.273 5.855-77.248 16.834a392.086 392.086 0 0 0-76.518 37.692 220.094 220.094 0 0 1 71.993-13.473c34.398 0 58.885 13.307 22.722 59.316 106.458-69.863 103.696-100.204 59.051-100.204"/><path d="M197.016 593.134h21.824v6.422h-14.904v7.584h13.307v6.454h-13.307v13.309h-6.92v-33.769zM245.289 610.334v-.565c0-10.18 6.387-17.299 15.37-17.299s15.304 7.053 15.304 17.199v.565c0 9.98-6.421 17.3-15.371 17.3s-15.303-7.086-15.303-17.2zm23.287 0v-.565c0-6.654-3.327-10.879-8.083-10.879-4.757 0-7.985 4.225-7.985 10.879v.332c0 6.654 3.327 10.913 8.15 10.913 4.825 0 8.019-4.192 8.019-10.846l-.101.166zM305.138 593.134h12.743a12.61 12.61 0 0 1 9.148 3.328 10.616 10.616 0 0 1 2.862 7.851 10.246 10.246 0 0 1-6.289 9.98l7.219 12.576h-8.018l-6.254-11.146h-4.391v11.146h-7.053l.033-33.735zm12.209 16.635a4.89 4.89 0 0 0 5.523-5.09c0-3.327-2.097-5.09-5.656-5.09h-5.023v10.18h5.156zM359.199 593.134h7.353l7.551 13.74 7.485-13.74h7.385v33.802h-6.886v-21.625l-7.984 13.973-7.951-13.872v21.524h-6.654l-.299-33.802zM419.281 613.761v-20.627h7.053v20.761c0 4.79 2.262 7.152 5.889 7.152 3.625 0 5.922-2.329 5.922-7.02v-20.894h6.952v20.561c0 9.349-5.123 13.873-12.975 13.873-7.85 0-12.841-4.492-12.841-13.806zM475.405 593.134h7.02v27.447h13.707v6.454h-20.727v-33.901zM534.956 592.868h6.653l12.176 34.067H546.6l-2.595-7.187H532.36l-2.395 7.187h-7.021l12.012-34.067zm6.919 20.527-3.692-11.045-3.726 11.045h7.418zM621.154 600.021l-5.156 1.396-1.131-6.088 8.25-2.528h4.857v34.134h-6.92l.1-26.914zM700.997 599.556h-8.516v-6.422H716.5v6.654h-8.55v27.38h-6.953v-27.612zM744.347 593.134h21.823v6.322h-14.804v7.318h13.073v6.32h-13.073v7.553h15.036v6.354H744.38l-.033-33.867zM805.56 592.868h6.654l12.142 34.067h-7.252l-2.462-7.187h-11.677l-2.462 7.352h-7.053l12.11-34.232zm6.92 20.527-3.66-11.045-3.726 11.045h7.386zM852.035 593.134h7.286l7.552 13.74 7.552-13.74h7.419v33.802h-6.887v-21.625l-7.984 13.973-7.951-13.872v21.524h-6.853l-.134-33.802z"/></svg>