<svg xmlns="http://www.w3.org/2000/svg" id="Livello_1" version="1.1" viewBox="0 0 95.8 79.3"><defs><style>.cls-1{fill:#fff;stroke-width:0}</style></defs><path d="M52.4 15.3c0-8.5-7-15.3-15.6-15.3h-19v30.9c.3.2.6.5.8.7 2.2 2.4 2.3 6.4.4 8.9-.4.5-.8 1-1.2 1.4v5.8c.2 0 .4-.2.6-.4.1 0 .3-.2.4-.3.1 0 .4-.3 1.4-1.1 1.9-1.5 4.2-3.3 6.8-3.9.8-.2 1.2-.3 1.7-.3v-33h5.6c4.1 0 7.2 3 7.2 6.8s-3.3 6.8-7.4 6.8h-2.6v12.4l3.1 4.8c.3-.3.6-.5.9-.8v-.2c2.4-2 5-2.9 8.2-2.9l.2-.2-3.8-5.4c7-1.5 12.1-7.5 12.1-14.7M74 0H56.3v29.4l.9-.6q.9-.6 2.1-1.2v-.2c1.3-.6 2.9-.9 4.5-.9s2.3.2 3.3.5V8.9H74c3 0 5.5 2.8 5.5 5.8S77 20.2 74 20.2h-3.6v8.4l.9.6.3.3h5.3c3.7 0 6.5 3 6.5 6.7s-.3 2.4-.9 3.4c1.5 1.9 3.5 4.3 4.6 6.2.5 1 .9 2 1.2 3.1 3.8-2.7 6.3-7 6.3-11.8S92.5 27 85.5 23.7c2.8-2.6 4.6-6.2 4.6-10.1s-1.4-6.8-3.7-9.3C84 1.5 79.6 0 73.7 0M52.8 70.1c.2.3.4.7.6 1.1.3.7.6 1.2.9 1.3h.4c.7 0 1.6-.4 2.3-.9.4-.3.3-.5 0-.8 0 0 0-.2-.2-.3-.2-.4-.3-.7-.4-1.1-.2-.7-.4-1.2-1.1-1.1-1 0-2 .2-3.1.2 0 0-.4 0-.5.2 0 .3.2.5.5.8l.5.5M2.3 73.5c-.6.2-1.3 1-1.3 1.4 0 2-.2 2.2-.7 2.8-.2.2-.3.6 0 .7 0 0 2.1.8 2.3.8s.3-.5.7-1.9c.2-.7.5-1.6.7-2.3l-.2-.4c0-.2-.9-1.1-1.3-1.1" class="cls-1"/><path d="m95.6 70.3-1.2-.6c-1.4-.8-2.2-2.2-3-3.5-.3-.5-.6-1.1-1-1.5-.2-.3-.6-.7-1-1-.2-.3-.5-.6-.5-.7-1.3-3.5-2.7-7.7-3-12.3 0-.7-.5-2.3-1.1-3.3-1.8-3-6.2-8.1-6.5-8.4l-.5-.5-7.9-6.7c-1.6-1.1-2.1-1.3-3.2-1.7-.7-.3-1.6-.4-2.5-.4s-2.2.2-3.2.6c-.6.3-1.2.7-1.8 1.1-1 .6-2.1 1.3-3.2 1.7-.9.4-1.8.7-2.8 1-1.8.6-3.7 1.1-5.1 2.5-.4.4-.8.7-1.1 1-1.4 1.3-1.5 1.4-2.6 1.4-2.6 0-4.4.6-6.3 2.2-1.5 1.4-3 2.6-4.7 3.3-.8.3-1.6.4-2.6.5-1.4.1-1.6.1-2.8.4-1.9.4-3.9 2-5.6 3.3-.6.4-1.3 1-1.6 1.2-.2 0-.4.3-.6.4-2.1 1.2-4.1 2.4-6.6 2.4h-.2c-1.9 0-3.6-1.4-4.2-3.2-.5-1.9 0-3.9 1.6-5.5.7-.7 1.6-1.4 2.4-2.1 1.3-1.1 2.5-2.1 3.4-3.3 1-1.3.9-3.6-.2-4.8s-3.6-1.8-4.5-2h-.5c-.6 0-1.2-.2-1.7-.3-1.5-.4-2.6-1.5-3.9-2.2-.7.7-.8 1.5-.8 2.4.3 2 1.9 4 3.7 4.8h.2c.6.2 1.2.3 1.7.3h2c.4 0 .7.4.8.9 0 .3-.1.5-.4.7-.3.3-.6.5-.9.8-1.6 1.3-3.2 2.6-4.5 4.2-1.8 1.9-1.8 5.2-1 7.3 1 2.8 3.9 4.4 6.3 4.7h1.3c1.4 0 2.8-.3 4.1-.7h.1c.1 0 .2 0 .2.3 0 .6.1 1.2.1 1.9 0 1 .1 2 .2 2.4.2.9.6 2 .9 2.8.1.3.2.6.3.7.1.4 0 .9-.3 1.1-1 .9-3 1.6-3.4 1.7h-2.2c-.2 0-.4 0-.6.3-.3.3-.6 1.1-1 2-.2.6-.4 1.1-.7 1.6-.6 1-1.7 1.7-2.7 2.3-.3 0-.5.3-.8.4-.4.7-.8 1.3-1.4 1.8-.4.4-1 .5-1.5.5-.8.9-1.1 2.1-1.3 3.3v.7c.4 0 .8 0 1.3.2.6 0 1.2.3 1.8.3s1.1 0 1.5-.4c.8-.4 1.2-1.1 1.6-1.7.3-.4.5-.9.9-1.3.2-.2.5-.3.8-.3s.6 0 .9.2c.3 0 .6.2.9.2 1.4 0 2.7-.8 3.4-1.3.3-.2.6-.5.8-.8.4-.4.9-.8 1.3-1.1.6-.3 1.3-.4 2.1-.4s2.2.2 3.1.4c.5 0 1 .2 1.5.2.9 0 1.7-.2 2.3-.6.8-.4 1.6-.9 2.2-1.2.4-.2.7-.4 1-.5 1.1-.6 2.1-2.3 2.4-3l.9-2.1-1.3-1.1s-.9 1.5-1.4 2.2c-2.3 3.2-6.1 3.6-9.1 3.6h-.6c-3.8 0-6.8 1.3-9 3.7h-.4s-.1-.2 0-.3l.2-.6c2.4-3.3 6.4-3.8 9.6-3.9 2.4-.2 4.1-.6 5.6-1.3 1.9-1 3.4-3.2 3.9-4.9.4-1.1.6-2.3.7-3.5 0-.9.3-1.9.5-2.8 0 0 .2-.2.3-.2 0 0 .4 0 .4.3-.3 1.8-.8 4.3 0 6.4.4.8 1.2 1.2 2.5 1.2s1.7 0 2.5-.3c.7 0 1.3-.2 1.8-.2h.7c1.1 0 2.1.2 3.1.4.9.2 1.7.4 2.7.4h1.5c.8 0 1.3-.2 1.7-.5.3-.2.2-.6 0-1v-.3c-.2-.6-.4-1.4 0-1.8h.4v.5c.2.7.4 1.4.8 2 .9 1.2 2.4 2.3 4.1 3.2 1.1.8 2.5 2.1 2.6 4 0 .8-.8 1.4-1.4 1.8-1 .5-2.4 1.1-3.4 1-.6 0-1.1-.4-1.1-.4-.9-.9-.8-1.1-1.4-2.2-.3-.5-.7-1.1-1.1-1.6-.6-.6-1.3-.9-2.3-.8-.9 0-1.8.3-2.9.5-.2 0-.4.2-.5.4v.7c.5 1 1.1 1.8 1.6 2.8l.2.4c0 .2.4.3.6.3h.9c.5 0 .8 0 1 .4s.3.5.5.8c.4.7.7 1.3 1.4 1.8.6.5 1.4.8 2.2.8s.7 0 1.1-.2c2.5-.8 4.9-1.6 7.2-2.8h1.3c.8 0 1.6 0 2.2-.7.7-1.1 1.4-2.1 1.9-3.3.5-1 .5-2 0-2.8-1.5-2.3-1.7-3-2.3-4.6-.2 0-.3 0-.5-.2-.4 0-.7-.3-1.2-.3s-.8.2-1 .5l2.7 5.2c.2.4.4.8.3 1.4s-1.4 2.7-1.8 2.9h-.2s-.2 0 0-.3c.2-.8.6-2.9.5-3.5 0-.7-2.3-4.4-2.4-4.6-.3-.7-.7-1.2-.7-1.9s.3-.5.5-.6c.4 0 .8-.2 1.2-.3.9-.2 1.9-.4 2.3-1 1.1-1.6 1.7-3.3 2.1-5.6 0 0 0-.3.2-.3s.2 0 .2.2c.4 2.2 0 4.5-1.5 6.4v.5c0 .2.2.3.2.3.5.3 2.4 0 3.7-.6 1 0 2-.2 2.9-.3.3 0 .6 0 .9-.2 0 0 .2 0 .2.2-.8.9-1.3 1.9-1.5 3.2-.2.2-.5.4-.7.7-.9.8-1.8 1.7-1.8 2.8 0 0 0 .4.4.4h.9c.2 0 .2 0 .3.3l-1 1.4c-.4.6-.2 1.2 0 1.9 0 .3 0 .6.2.9.2.7 1.1 1.1 1.8 1.1 1.3 0 2.5-.5 3.6-.9.2 0 .4 0 .6-.2 1.2-.5 2.9-.6 4.9-.3 1.6 0 2.8-1.1 3.9-2.2q.75 0 1.5.9c1.7 1.8 3.8 2.7 6.4 2.7h.6c.3 0 .3-.2.4-.4 0-.2 0-.4-.4-.5l-1.5-.8c-1.2-.7-2.4-1.6-2.8-2.8-.4-1.3-1.1-2.5-1.6-3.4 0-.2-.2-.3-.3-.5l-.6-.9c1.6.6 2.5 1.8 3.6 3.7.8 1.5 2.9 3 4.9 3h.8c.2 0 .4-.2.4-.4 0 0 0-.2-.2-.3M67.2 46.7c0 .2 0 .3-.2.3 0 0-.2 0-.2-.2-.4-2.1-.7-3.2-1.1-4.1-.2-.3-.3-.6-.5-.8-.4-.5-.7-.9-.3-1.5 0-.2.4-.3.6-.3h.4q.6.3 1.2 1.5c.9 2.1 0 5 0 5m13.4 21.2s0 .6-.3.9c-.3.2-1.4.4-1.9.4s-.7 0-.8-.3v-.5s.7-1.4 1.9-1.8h.8c.4.2.2 1.2.2 1.3m3.7-8.3c0 .5-.2.7-.3.8s-.2.4-.5.4-.4-.5-.4-.5 0-1.3-.3-1.8c-.3-.6-1.6-2.3-2.3-2.2-.2 0-.7.3-1.1.8q-.4.6-.6.7s-.3 0-.4-.3 0-.6 0-1.3c.2-.7.3-.8.5-1.3 0 0 .4-.9.5-1.1.4-.6.9-.6.9-.6s.6 0 1.1.6c.6.7.5.7.6.9.2.3.3.5.8 1s1 1.5 1.2 2.2c.4.7.4 1.2.3 1.7" class="cls-1"/><path d="M4.4 73.5s.4.3.7.3.4 0 .6-.2C6.8 73 7.9 71 8 70.9c.1-.3-.3-.6-.7-1h-.1c-.2-.2-.6 0-.8 0s-.3.2-.5.3c-.6.4-1.2.8-1.8 1.3-.2.2-.3.5-.4.8v.5c.1 0 .5.6.6.7" class="cls-1"/></svg>