<svg xmlns="http://www.w3.org/2000/svg" viewBox="0 0 222.9 84.5"><path d="M69.7 42.3C69.7 18.9 88.6 0 111.9 0s42.3 18.9 42.3 42.3-18.9 42.3-42.3 42.3-42.3-19-42.3-42.3" style="stroke-width:0;fill:#ffd300"/><path d="M78 17.1c.7.3 1.3.7 2.1 1.1 3.2 2.2 5.2 4 10 8.1 1.4 1.4 3.1 3.7 4.3 5.1 2.6 3.3 4.5 5.6 4.8 8.3.8 5.5 1.5 8.5 3.6 14.1.2.5 1.1 1.3 1.6 2 1.3 1.6 1.9 4.3 4.3 5.7 1.3.8 1.5.9 2 1.2.7.5-.4 2.5-3.8 2.1 1.7.9 1.5 2.8-1 2.9-4.9.2-8-2.6-8.6-3.4-.3-.3-1.3 1-3.1 1.6-1.7.9-4.1 0-6 .3-1.7.3-4 1.4-5.9 1.5-3.3.1-3.7-2.2-3.7-4.1v-.9c-.3 1.2-1.5 3.3-1.5 3.3-.4 1-1.1 2.2-2.3 2.6l-3.5.4c-2.7 1.2-5.5 2.1-8.3 3.1-1.6.3-3.5 0-4.7-1-1-.8-1.5-1.7-2.1-2.7-.5-.2-1.3 0-2-.2-.5-.1-.9-.5-1.2-.9l-2.4-4c-.2-.5-.2-1.3 0-1.9.4-.9 1.4-1.3 2.4-1.3 1.7-.1 3.7-.7 5.5 0 .8-.9 2-.8 3.1-1-.4-.7-1.1-1-1.6-1.5-3.2.8-6.7.2-9.7-.3-2.8-.7-5.2 1-8.1.5l-.9 1.9c-1.3 1.4-1.4 3.8-3.4 4.8-1.4.3-2.5 1.3-3.7 2-2.2 1.2-5.1.7-7.5.2-1-.1-1.6 0-2.5.3-.8.5-1.6 1.4-2.5 2.1-1.4.5-2.6 1.7-4.1 1.9-.9 0-1.7-.5-2.6-.3-1.1 1.2-1.6 3.2-3.4 3.7s-3.9.1-5.7-.3c-.5.2-.9.7-1.5.5-1.2-.3-2.4-.7-3.5-1.3-.4-.4-.5-1-.7-1.4 0-.8.7-1.4 1-2.1.1-.8.1-1.9.4-2.6.5-1.2 1.7-2 2.9-2.5.1-.9.7-1.6 1.4-2.1 1.4-.8 2.9-2.5 4.8-1.5l2 1.6c1.7-.8 1.3-2.5 2.2-3.9.4-1 1-2.1 2.1-2.1.8-.1 1.6.1 2.4 0 1.1-.3 2.3-.8 3.1-1.6v-.7c-1.2-2.1-1.5-4.6-1.6-7.1-2 .2-4 .5-6.1.1-3.1-.4-6-2.8-7.2-5.9-1.3-2.9-.8-7.1 1.3-9.6 1.6-2 3.5-3.7 5.5-5.2-.7-.2-1.4-.1-2.1-.3-2.8-.4-5.7-2.9-6.3-5.8-.4-1.9 0-3.6.9-5.1.3-.3.7-.7 1.2-.4 1.4.5 1.9 1.3 3.2 2l.8.4c3.6 1.2 8.4 1.2 9.8 5.7.9 3.5-1.3 6.1-3.8 8.1-2 1.4-3.9 3.2-4.9 5.2-.4 1.5-.2 3.1 1.1 4.1 1.3 1.3 3.6 1.3 5.2.7 3.1-1.3 5.9-3.3 8.6-5.4 2.6-2 5.8-2.7 9.2-2.8 1.5-.3 2.8-1 4-2 2.1-2 4.3-3.6 6.9-4.3 1.2-.2 2.4-.3 3.6-.4 1-.4 1.6-1.6 2.4-2.2 3.6-3.2 8.4-3.1 12.2-5.6 2.2-1.6 4.6-2.7 7.4-2.6 1.3.1 2.5.3 3.6.8l.9.4Zm3.6 37.2c-2.4.1-3.9.7-5.6.9.1 1.5 1 2.8 2.2 4.5.7-2.5 2.7-3.5 3.4-5.4m61.4.5c1.1 1.6 1.7 3.3 2.7 5 1-1.9 1.9-3.6 2.7-4.7-.1-.1-2.9.2-5.5-.3m2.4 8.1c-.1.3-.3.4-.8.4.3 1.5-.8 4.4-3.5 4.5-1.9.1-4.9-1.7-6.7-1.9-1.9-.1-5.2 1.3-7.2-1.6-2.6 3.2-5.7 4-8.3 3.9-1.5 0-3.2-.9-.9-2.8-5 1.6-5-1.7-4.1-2.4.5-.4 1.2-.8 3.1-2.6 7-7.3 4.4-20 12-28.4 2.9-3.3 5.4-5.1 11.4-9.4 2.1-1.4 4.1-3.5 6.1-4.9v.2c.1 0 .1-.1.1-.1 1.2-.9 2.3-1.7 3.6-2.1 2.7-.3 5.2.5 7.3 2 1.1.8 2 1.6 2.8 2.7.7.7 1.6.7 2.5 1 2.5.4 4.7 1.4 6.8 2.7 1.4.9 2.6 2.4 4.4 2.6 2.1.3 3.9 1 5.8 2.1 2.2 1.4 4.1 3.2 6.8 3.6 5.2.5 9.6 3.5 13.8 6.4 2.4 1.4 5.2 3.1 8.2 2.1.9-.3 1.5-1.1 1.7-1.9.2-2-1-3.5-2.2-4.9-2.5-2.9-6.9-5.5-6.3-9.7.8-3.2 4.3-5 7-5.9 1.5-.5 3.4-.3 4.7-1.6.7-.4 1-2 2.1-1.4.9.5 1 1.6 1.1 2.6.4 3.1-.2 6.1-3.1 7.9-1.3.9-2.7 1.2-4.3 1.5 2.3 1.9 4.6 4.1 5.9 6.8.8 1.5 1.2 2.8 1.3 4.6-.1 3.3-2.1 6.1-4.9 7.8-1.6.9-3.5 1.2-5.5 1.2s-1.4-.2-2.1-.2c.3 1.5.3 3.6 0 5.4-.1.9-.7 1.9-.7 2.9.4.5 1.1.5 1.6.5 1.4 0 3.2-.1 3.9 1.4.7 1.4 1 3.1 1.5 4.5.2.2.3.8.7.7 1-.9 2-2.1 3.4-1.7 1.3.9 2.6 1.9 3.9 2.8.3.3.4.8.5 1.3 1.1.4 2.5 1.2 2.8 2.5.2.9.1 1.7.3 2.5.3.9 1.2 2 .5 3.1l-.4.3-4.1 1.3c-.3 0-.7-.2-1-.5-2.2-.1-4.8.5-6.6-1-.8-.7-1.3-1.4-1.9-2.3-1.3.7-3.2 1.1-4.5.2-2.7-2.1-5.5-4.1-9.2-4-1.6.3-3.6.8-5.2.1-1.5-1.1-3.3-1.6-4.5-3.3-1.7-1.9-1.7-4-2.4-6.3-2.4.5-5 .2-7.4.1-2-.1-3.8.2-5.7.7-2.3.4-4.8.7-7.2.5l-1.2.9c.5.1 1.1.1 1.5.5l.4.4c2 .2 4.3-.1 6.1.3.4.1.9.5 1.1 1s.2 1.2-.1 1.6c-1 1.3-1.5 2.8-2.8 3.9-.3.4-1.3-.1-1.4.7-.4 2-2.3 3.6-4.1 4-.8.1-1.6 0-2.3-.2-2.3-.8-4.6-1.4-6.9-2.1-.8-.2-1.4-1-2.1-1.4-1 0-2.4.3-3.1-.5-.3-.2-.7-1-.8-1.3-.8-1-1.3-2.7-1.6-4.3" style="fill-rule:evenodd;stroke-width:0;fill:#ffd300"/><path d="M76.9 30.9c.7 1.6.7 3.8.2 5.6q-.15.15-.3 0c-.3-1.5-.7-3.1-1.2-4.6-.3-.9-1.4-1.6-1-2.6.2-.2.7-.2 1-.1.5.5.9 1.1 1.3 1.7m17.4 15.3c1.2 1.4 2.1 2.9 1.6 4.8-.2.3-.1 1-.7 1.1-.2.1-.4-.1-.4-.3-.1-1-.1-2.1-.7-2.8-.7-.7-1.4-2-2.5-2-.8.2-1.3 1.1-1.7 1.6 0 .1-.1.1-.2 0-.4-1.1.4-2 .8-2.8.7-.7.5-2.5 2-2 1 .7 1.2 1.7 1.9 2.4m-2.4 13c.1.7.1 1.6-.5 2.1-.7.2-1.5.3-2.3.2-.2-.1-.4-.2-.3-.4.3-1 1.3-2.1 2.4-2.3.2 0 .7 0 .8.4M12.3 19.3c2.6.7 5.5.7 7.4 2.7 1.1 1.3 1.2 3.6.3 4.9-1.5 2.6-4.6 3.9-6.4 6.2-1.9 1.5-2.5 3.9-2 6.3.7 2.1 2.7 3.5 4.8 3.6 3.3.1 5.7-1.5 8.3-3.1 2.6-1.9 5-4.3 8-5 2-.7 4.1-.3 6.1-1.1 2.1-.4 3.7-2.2 5.4-3.7 1.9-1.5 4-2.4 6.4-2.3 2.2.3 3.4-1.6 4.9-2.9 2.5-2.3 5.8-2.5 8.7-3.8 2.1-.7 3.7-2.2 5.7-3.2 1.9-.8 4.4-1 6.2-.2 1.2.5 2.5 1.1 3.6 2l8.8 7.4c.1.3.4.5.7.7 2.5 3.1 5.1 6 7.2 9.4.7 1.2 1 2.4 1.3 3.7.4 5 1.7 9.4 3.4 13.8.4.7 1.3 1.2 1.7 1.9 1.4 2 2.3 4.5 4.6 5.8l1.3.7c.1.1.1.3 0 .4l-.2.2c-2.7.4-4.8-1.2-6.2-3.2-.9-1.7-2.1-3.6-4-4.4-.1 0-.2.1-.2.1.2.7.9 1.1 1.1 1.6.8 1.2 1.4 2.5 1.7 3.8.4 1.4 2 2.4 3.2 3.2l1.7.9c.2.1.3.4.1.7h-.2c-2.9.2-5.6-.8-7.6-2.9-.4-.5-1.1-1-1.9-1-1.3 1.2-2.6 2.3-4.4 2.4-1.9-.3-3.8-.3-5.5.3-1.5.5-3.1 1.2-4.7 1.2s-1.6-.3-2-1.1c0-1-.7-2.1-.1-3.1l1.1-1.6c0-.2-.1-.4-.3-.4-.4-.1-1.2.7-1.4-.1.1-1.6 1.7-2.7 2.8-3.8.2-1.3.8-2.5 1.7-3.6 0-.1-.1-.3-.3-.3-1.4.2-2.8.5-4.4.5-1.2.7-2.7 1.1-4.1.7-.3-.2-.2-.5-.1-.8 1.5-2.1 2.1-4.7 1.6-7.2-.1-.1-.1-.3-.3-.3s-.2.2-.3.3c-.3 2.4-1.1 4.3-2.4 6.3-1 1-2.5 1-3.8 1.3-.3.1-.7.4-.7.8 0 .9.5 1.4.9 2.2l2.8 5.2c.1 1.4-.5 2.8-.9 4.1.1.2.3.1.5 0 1-.9 1.6-2.1 2.1-3.4.1-.5-.1-1.2-.3-1.6l-2.9-5.9c.2-.3.7-.3 1-.4.7 0 1.3.3 2 .5.7 1.7 1.4 3.6 2.6 5.1.2 1 .5 2.3-.1 3.1-.7 1.3-1.3 2.4-2.2 3.6-.8.8-1.9.7-2.9.8h-.3c-2.6 1.4-5.4 2.3-8.2 3.2-1.2.5-2.6.1-3.6-.7S57.7 67.9 57 67c-.8-1-2-.1-2.8-.7-.8-1.2-1.5-2.4-2.2-3.7 0-.3 0-.7.3-.9 1-.3 2.1-.3 3.2-.4 1-.1 2.1.1 2.7.8 1.3 1.5 1.9 3.6 3.8 4.6 1.5.1 2.8-.3 4.1-1 .8-.4 1.6-1.1 1.6-2.1-.1-2-1.4-3.5-3.1-4.6-1.6-.9-3.4-2.1-4.6-3.6-.7-.9-.8-1.9-1.1-2.7-.1-.2-.5-.2-.7-.1-.7.5-.1 1.5-.1 2.2.1.4.3 1 .1 1.3-1 .8-2.3.3-3.5.4-2.4-.1-4.7-1.1-7.2-.9-2.4.1-5.7 1.7-7.4-.7-.9-2.3-.7-5-.2-7.3 0-.2-.2-.4-.4-.4-.2-.1-.4 0-.5.2-.7 2.3-.8 4.8-1.3 7.2-.9 2.1-2.4 4.3-4.5 5.4-1.9 1-4 1.3-6.3 1.5-4.1.1-8 .9-10.6 4.5-.2.3-.5.7-.4 1.1.1.1.4.2.5.1 2.8-3.2 6.4-4.5 10.6-4.3 3.9 0 7.9-.7 10.4-4 .7-.8 1.1-1.5 1.6-2.4.4 0 .8.5 1.1.8.1 1.2-.9 2-1.3 2.9-.5 1.1-1.1 2.4-2.2 3.1-1.3.3-2.4 1.2-3.6 1.9-1.2.5-2.7.8-4.1.4-1.7-.3-4.1-.8-5.9 0-.9.5-1.6 1.5-2.5 2.1-1.2.5-2.3 1.5-3.7 1.4-1-.2-2.2-.9-3.1 0-1.1 1-1.3 2.7-2.7 3.4-1.6.9-3.4 0-5-.1.2-1.6.4-3.2 1.5-4.4.7-.1 1.2-.2 1.7-.7.7-.5 1.1-1.3 1.5-2.1 1.4-.9 3.1-1.5 3.9-3.1.7-1.4.7-2.7 1.7-4l.5-.2 2.9-.2c1.2-.5 2.3-1.1 3.4-2 .3-.3.4-.9.3-1.4-.5-1.4-1-2.4-1.3-3.9s-.1-3.1-.3-4.8c-.1-.1-.2-.4-.4-.4-2 .4-3.8 1-6 .7-2.9-.3-6-2.3-7.1-5.2-1-2.5-.8-6.1 1.1-8.2 1.7-2.2 3.9-3.8 6.1-5.7.3-.2.3-.7.4-1 0-.4-.4-.8-.8-1-1.3-.3-2.8.1-4.1-.4-2.3-.8-4-2.9-4.4-5.4-.1-1.1.1-2 .7-2.8C9 17.7 10.4 19 12 19.5M5.8 68.1v.3c-.5 1.3-.9 2.8-1.3 4.4-1-.1-1.9-.4-2.6-.8-.2-.2 0-.4 0-.7 1-.9.7-2 .9-3.2.1-.7.8-1.2 1.4-1.5.8.1 1.2.9 1.6 1.4m4.8-4.5c-.5 1.1-1.3 2.4-2.5 3.1-.4.1-1 .1-1.4-.1-.2-.2-.7-.4-.7-.9.1-.4-.1-1 .3-1.2.9-.5 1.7-1.1 2.6-1.9.2-.1.7-.2.8 0 .4.3.8.5.9 1m54.7-.4c.1.4.8 1 .3 1.4-.9.7-1.9 1.1-3.1 1-.9-.7-.8-1.9-1.5-2.7-.2-.7-1.2-.7-1-1.3l.3-.2c1.2 0 2.4 0 3.6-.2 1.2-.1.9 1.3 1.3 2.1m69.1-17.9c.7.9 1.2 1.7 1.6 2.8.1.2 0 .4-.1.7-.1.2-.3.4-.7.2-.8-.2-.7-1.4-1.6-1.3-.7 0-1.1.5-1.6.9-1 .9-2.3 1.7-2.5 3.1-.2.4-.1 1.2-.5 1.4-.2.1-.5-.1-.5-.3-.1-1.7.4-3.4 1.6-4.6 1.2-1 2.1-2.4 3.1-3.6.7-.1 1.1.3 1.3.8m.3 14.4c.2.4.7 1 .3 1.5-.4.3-1.2.1-1.7.1-.7-.3-.9-1.2-.9-2s0-.3.2-.5c.8 0 1.5.2 2.1.9m16.4-33.4c.3.4 0 .9-.2 1.2-1.5 1.4-3.4 2.9-4.5 4.7-.4.5-.8 1.2-1 1.9 0 .1-.1.1-.2.1-.3-.9.1-1.9.3-2.7.8-2.1 2.5-4 4.4-5.5.2-.1 1-.2 1.2.3m6.2-7c1.2.8 1.6 2.4 3.1 2.7 2.4.5 4.8 1.1 7 2.2s2.9 1.9 4.4 3.1c1.3.7 2.9.7 4.4 1.1 2.1.5 3.7 2.1 5.6 3.3 2.4 1.9 5.8 1.6 8.5 2.8 4.4 1.4 7.9 4.8 11.9 6.8 2.1 1.1 5.2 1.5 7.3.3 1.4-1 2.3-2.3 2-4.1-.8-4.5-5.7-6.8-8-10.5-.4-.9-.8-2.1-.5-3.1.9-2.2 3.2-3.4 5.1-4.1 1.5-.8 3.5-.5 4.9-1.4.5-.3 1-.8 1.3-1.1.3 0 .3.3.4.5.4 2.6 0 5.4-2.3 6.9-.9.7-2 .9-2.9 1.1-.9.3-2.6-.3-2.5 1.2.2.8.9 1.2 1.4 1.7 3.1 2.5 5.9 5.8 6.2 9.7.1 3.1-2 5.7-4.6 7-2 .8-4.4 1.1-6.4.5-.5-.1-1.4-.7-1.9.1-.1.9.4 1.5.4 2.3.2 1.4.2 3.3-.2 4.7-.2 1.1-1.3 2.4-.3 3.5 1 1.5 2.9 1.1 4.6 1.3.9.1 1.2 1.1 1.4 1.7.3.9.3 1.9.7 2.5 0 1.6 1.9 2.3 2.7 3.4 1.1 1.2 2.1 3.3 3.9 3.2.7 1.3 1 2.5 1.2 4l-.2.2c-1.5 0-3.6.4-4.7-.7-1.3-.9-1.7-3.3-3.7-2.6-.9.7-2.1.9-3.1.4-1-.3-1.6-1.2-2.5-1.7-2.6-2-6.1-2.9-9.5-2.2-2 .5-3.5-.9-5-1.7-2.1-.9-2.6-3.1-3.1-4.9l-.3-2.3c0-.2.2-.4.4-.5h.3c1.2 2.7 3.5 5.8 6.4 6.8 2.7 1.1 5.2-.3 8.2.2 2.7.3 4.9 2.1 7 3.7.2 0 .3-.1.4-.3v-.2c-2.5-3.2-6-4.8-10-4.5-3.4.7-6.7-.4-8.6-3.3-1.1-1.6-1.9-3.4-2.2-5.2-.3-2.2-.8-4.6-1.5-6.6-.2-.1-.4-.3-.7-.2l-.2.3c.3 2.1 1 4.6.2 6.8-.5 1.7-2.3 2.4-3.9 2.5s-3.2-.2-4.9-.2c-3.9-.1-7.4 1.4-11.5 1.1.3-1 1-2 .7-3.1-.1-.2-.4-.2-.7-.2-.8.4-.7 1.4-1.1 2.1-.9 1.4-2.5 2.7-4.1 3.1-1.2.9-2.3 2.1-3.3 3.2-.3.3-.3 1-.2 1.4.8 2 3.1 2.2 4.8 2.7.9.1 1.6-.2 2.1-1 .8-1.2.9-3.2 2.6-3.4h3.8c.3.1.5.3.8.7v.5c-1 1-1.3 2.4-2.4 3.1-.7.2-1.4 0-1.9.5-.2 1.3-.5 2.7-1.9 3.4-1 .9-2.4.4-3.5.1-2.1-.8-4.1-1.2-6.2-1.9-.9-.2-1.2-1.3-2.2-1.5-.9-.2-1.9.4-2.6-.3-.4-1-.7-1.6-.9-2.7-.3-.7-.5-1.4-.7-2.2-.1-.7 0-1.1.2-1.6l2.8-5.1c.2-.3.4-.7.8-.8.7.1 1.4.4 2.1.8v.3c-.1 0-3.1 4.5-3.1 4.5-.7 1.4 0 3.1.7 4.3.1.1.2.3.3.2-.1-.9-.2-1.7 0-2.7.2-.9.8-1.6 1.2-2.4l2.3-3.4c.2-.5.2-1.4-.2-2-1-1-2.4-1.3-3.3-2.6-1.9-2.5-2.1-5.5-2.3-8.6 0-.2-.2-.5-.5-.7-.2-.1-.4.2-.5.3-.5 2.1-.2 4.6.3 6.4.3 1.4 1 2.8 1.6 4.1.1.2-.1.5-.3.7-1.5.1-3.1 0-4.5-.2-2-.3-3.4-1.9-5-3.1-.2-.1-.3.1-.4.2.4 2.2 2.8 3.5 3.6 5.5.4 1.6 2.1 2.8 2.4 4.6 0 .2-.2.5-.4.7-.5.1-1.1-.2-1.6.1-.1 1 .5 2 .1 2.8-.5.9-1.3 1.9-2.3 1.9-2-.7-3.9-1.5-5.9-2.1-1.4-.1-2.8.1-4.1.2-1.3-.2-2.2-1.4-3.2-2.1-.3-.1-.7-.1-.9.1-2.2 2.2-4.6 4.6-7.9 4.5-.2 0-.3-.2-.3-.4v-.2c1.4-1.3 3.2-2.6 3.8-4.5.4-1.5 1.7-2.6 2.3-4 .1-.2-.1-.3-.3-.4l-.3.2c-1.6 1.6-2.8 3.5-4 5.2-1.2 1.2-2.9 2-4.8 1.5-.2-.1-.2-.4-.1-.7 6.8-4.1 7.5-11.6 9.4-18.3 1.3-4.5 2.3-9.1 5.8-12.7 5.2-5.8 11.8-9.2 17.6-14.2.9-.8 1.7-1.5 2.8-1.5 2.8-.2 5 .9 7 2.5m62.3 48.3c.5.8.3 2 .5 2.8.1.7 1 1.2.5 1.9l-2.4.8c-.4 0-.2-.5-.4-.8-.2-1.4-.5-2.4-1-3.7-.1-.8.7-1.3 1.2-1.7.5-.2 1 .4 1.5.8m-5.5-5c.9.8 2.1 1.3 2.7 2.3.1.4-.2.9-.4 1.2-.3.3-.8.5-1.3.5s-1-.3-1.3-.8c-.5-.9-1.3-1.6-1.5-2.5.3-.5 1.1-1.4 1.9-.8m-52.7-.8c-.1 1.1-.4 2.1-.9 3.1-.3.7-1.3.4-2 .3-.7-.2-1.7-.3-1.9-1.3-.1-.9.3-1.7.8-2.4 1-.1 2.2.1 3.2-.1.4 0 .8.1.8.4" style="fill-rule:evenodd;stroke-width:0;fill:#e21b4d"/></svg>