<svg xmlns="http://www.w3.org/2000/svg" xml:space="preserve" id="Layer_1" x="0px" y="0px" version="1.1" viewBox="0 0 1600 754"><style>.st2{fill:#e2071f}.st3{fill:#ffd800}</style><linearGradient id="SVGID_1_" x1="1028.0856" x2="1028.0856" y1="3300.4988" y2="3415.0081" gradientTransform="translate(-228.08 -2658.63)" gradientUnits="userSpaceOnUse"><stop offset="0" style="stop-color:#8c8c8b"/><stop offset="0.5" style="stop-color:#9b9b9a"/><stop offset="0.66" style="stop-color:#868686"/><stop offset="1" style="stop-color:#4d4d4c"/></linearGradient><path d="M132.7 677.8c0-20.8-14.6-33.3-39-33.6H.2v109.7h15.9v-40h76c13.6 0 21.9 6.8 21.9 18.3v21.7h16.2v-21.5c.5-11.2-6.2-21.5-16.6-25.7 11.9-4.5 19.6-16.1 19.1-28.9m-38.9 21.7H16.1v-41h77.7c21.2 0 22.9 15.6 22.9 20.5s-1.6 20.5-22.9 20.5m317.5-33.7c-8.1-16.4-17.3-23-31.9-23s-24.2 6.9-32 23l-41.7 85.3-1.3 2.7h17l.5-1.1 14.8-30.4H422l14.8 30.4.5 1.1h17.2l-1.3-2.7zM344 708l18.5-37.9c4.4-9 9.2-12.7 16.9-12.7s12.4 3.7 16.8 12.7l18.5 37.9zm276.5-8.9c0 37.1 16.1 54.5 50.8 54.8h85.9v-15.4h-84.7c-26.1 0-35.9-10.7-35.9-39.3s9.7-39.3 35.9-39.3h84.9v-15.4h-85.9c-35.2.1-51 17-51 54.6M937 753.9h15.8V644.2H937zm327.4-15.8c-15.1 0-18.7-5.1-46.2-41.8l-1.2-1.6c-29.6-39.6-37.6-50.2-63.4-50.5h-12.8v109.7h15.6v-93.8c14.3 0 17.9 4.7 44.7 39.9l3.3 4.3c29.8 39 37.9 49.5 62.8 49.7h13.1V644.2h-15.7v93.9zm319.5-40.8v41h-69.5c-26.1 0-35.9-10.7-35.9-39.5 0-28.7 9.7-39.2 35.9-39.2h84.4v-15.4h-85.7c-34.6.3-50.7 17.7-50.7 54.7s16.1 54.6 50.8 55h86.5v-56.4h-15.9z" style="fill:url(#SVGID_1_)"/><linearGradient id="SVGID_2_" x1="326.0365" x2="2013.5088" y1="3357.1453" y2="3357.1453" gradientTransform="matrix(.95 0 0 .95 -307.046 -2604.648)" gradientUnits="userSpaceOnUse"><stop offset="0" style="stop-color:#b2b2b2"/><stop offset="0.5" style="stop-color:#575756"/><stop offset="0.64" style="stop-color:#6e6e6d"/><stop offset="0.93" style="stop-color:#a5a5a4"/><stop offset="1" style="stop-color:#b2b2b2"/></linearGradient><path d="M410.2 576.5h-16.3c-179.2 0-394 3.8-394 6.7s177.3 9.7 394 9.7h812c179.2 0 394-3.8 394-6.7s-177.3-9.7-394-9.7z" style="fill:url(#SVGID_2_)"/><path d="M689.3 378.1v67.6c-.8 11.8-11.1 20.8-22.9 20-10.7-.7-19.2-9.3-20-20v-67.6h-37.2V453c0 25.3 26.2 45.9 58.5 45.9s58.5-20.5 58.5-45.9v-74.8zm121.1-80.4v196.9h37.5V297.7zM747 494.6h37.5V297.7H747zM563.2 392.4c10.4-9.3 16.4-22.6 16.5-36.5 0-12.5-4.8-24.6-13.5-33.7-8.9-9.9-24.8-15.4-46.2-15.4h-64v187.9h82.8c31.8-.5 57.3-24.5 57.3-53.9 0-21.5-7.6-36.8-32.9-48.4M531.8 462h-35.9V338.9h25c11.2.5 20 9.8 19.9 21 0 11-8.9 19.9-19.9 19.9h-13v33.8h23.9c13.3.6 23.6 11.9 23 25.3-.6 12.5-10.6 22.5-23 23zM125.4 362.2c-.3-30.9-25.5-55.7-56.4-55.5H.2v187.9h39.9V339h20.5c13.8-.5 25.4 10.3 25.9 24.1v.5c-.5 14.1-12.4 25.1-26.5 24.5h-9.3V433l39.9 61.6h47l-55.1-78.5c25-5.9 42.7-28.2 42.9-53.9m69.7 11c-34.7 1-62 29.9-61 64.6 1 33.3 27.7 60 61 61 26.2 0 46.5-11.9 57-30.4l-30.5-14.1c-4.4 8.9-13.6 14.5-23.5 14.3-13.5.6-25-9.8-25.6-23.3v-1.6h82.6c0-2.6.4-5.1.4-7.9.8-40.3-26.1-62.6-60.4-62.6m-22.5 49.2c0-12.7 10.3-22.9 22.9-22.9s22.9 10.3 22.9 22.9zm232.1 72.2v-197h-37.4v93.2c-10-10.1-23.5-15.7-37.7-15.8-30.8 0-56.1 27.5-56.1 61.6s25.1 61.6 56.1 61.6c14.3-.1 27.9-6 37.9-16.3V495zm-64.5-28.8c-16.6 1.5-31.3-10.8-32.8-27.4s10.8-31.3 27.4-32.8 31.3 10.8 32.8 27.4c.1.9.1 1.8.1 2.7.7 15.9-11.6 29.3-27.5 30.1" class="st2"/><circle cx="1262" cy="392.4" r="128.2" class="st3"/><path d="M1598.1 478.2c-.2-.3-.3-.7-.5-1.1 0-.7 0-1.5-.4-2.3-.2-2.1-.6-4.2-1.4-6.2-1.5-3.2-4.4-5.5-7.8-6.2q-.3-1.65-1.2-3c-2.1-2.7-4.7-5.1-7.7-6.8l-1.7-1.2-.7-.5c-1.6-1.2-3.5-1.9-5.5-1.9-3.6.2-6.9 2-9 4.8-.4-1-1-3.2-1.3-4.5s-.9-3.4-1.4-4.7v-.6c-1.1-4.5-4.7-7.9-9.1-8.9-1.6-.2-3.2-.4-4.8-.4-1.6.1-3.1-.2-4.6-.8 0-.3 0-.7.5-1.3.5-1.2.9-2.5 1.3-3.7 1.6-5.2 2-10.6 1.1-16 1.5.2 3.1.3 4.7.4 5.2 0 10.3-1.1 15-3.1 10.6-4.9 17.5-15.5 17.6-27.2v-1c-1-10.9-7.1-21.3-18.6-31.5 3.2-.7 6.3-2 9-3.8 8.6-6.2 12.5-17 9.8-27.3v-.8c-.4-3.7-3.4-6.5-7.1-6.5-1.8 0-3.5.7-4.8 1.9l-.9.8c-.6.7-1.4 1.3-2.1 1.8-2.2 1.1-4.6 1.8-7.1 2.2-2.3.4-4.5 1-6.7 1.7-10.3 3.5-16.7 9.1-19.2 16.4-1.5 5-.8 10.4 1.8 14.8v.4q4.95 7.2 11.4 12.9c5.5 5.1 10.7 10.3 11.8 16.3 0 1.1.5 3.1-3.1 5.8q-2.7 1.35-5.7 1.2c-3.4 0-6.8-.9-9.8-2.5-4.7-2.5-9.2-5.2-13.5-8.3-7.1-5.2-14.8-9.4-23-12.5-3.8-1.5-7.8-2.6-11.9-3.3-4.4-.5-8.5-2-12.3-4.3l-.5-.3c-1.4-.9-2.8-1.9-4.1-2.9-4.3-3.5-9.2-6.2-14.4-7.8-1.9-.6-3.9-1-5.9-1.2-1.5-.1-2.9-.4-4.3-1.1l-2.8-2c-3.8-2.9-7.8-5.6-12.1-7.8-7.2-3.3-14.7-5.7-22.5-7.1-.4 0-1.5-1.4-2.3-2.3-1.3-1.8-2.9-3.4-4.7-4.7-6-5.5-13.8-8.7-22-9.1h-2.4c-5 .7-9.7 3-13.2 6.6-6.7 5.9-14.1 11.2-21.1 16.3-11.6 7.9-22.4 16.9-32.2 26.9-10.3 10.7-14.2 24.1-17.5 35.9l-1.5 5.1c-.9 3.2-1.7 6.6-2.5 9.8-4.1 16.4-7.9 31.8-23.2 41.8-2.4 1.5-3.8 4.4-3.5 7.2.4 2.9 2.3 5.4 5.1 6.4 1.9.6 3.9.9 5.8.9.1 1.7.7 3.3 1.8 4.5 1.7 1.9 4.1 2.9 6.6 2.9h.3c9.5-.6 18.3-5.1 24.5-12.3 2.5 2.5 5.6 4.3 9 5.1h2.1c3.5-.6 7-.9 10.6-.8 3.1 1 6.3 2.2 9.4 3.3 3.1 1.2 5.1 1.8 7.4 2.7l1.2.4h1.1c5.2-.7 9.8-3.9 12.2-8.6v-1c.2-.5.4-1.1.6-1.6l.4 1.4c.7 3.2 2 6.3 3.9 9 1.9 2.2 4.7 3.5 7.6 3.5 1 0 2-.1 2.9-.3h.2l.3.4c1.6 1.9 3.7 3.3 6 4.2q4.2 1.35 8.4 2.4c3.5.8 6.9 1.8 10.3 3h.4q3.9 1.5 8.1 1.5c3.5 0 6.9-1.3 9.5-3.6 3.1-2.4 5.2-5.8 6.2-9.6l2.1-.5c4.7-1.5 9.3-10.3 9.3-10.3.3-.6.7-1.1 1-1.7 1.1-1.6 1.7-3.5 1.7-5.5 0-4.5-3.6-8.1-8.1-8.2H1422q-1.5 0-3 .6c-.7-.8-1.4-2.7-2.4-3.2h.4l2.5.3c1.6 0 3.2.3 4.8.3 5.2-.1 10.3-.7 15.4-1.8 4.3-.5 8.7-.6 13.1-.4h1.6c2 0 3.9.1 5.8.4 2.2.2 4.5.4 6.8.4h2.5c2.2-.1 4.4-.5 6.5-1.1l.8 4.1.3 1.4c1.1 7.4 5.4 14 11.7 18.1l1.3.9c3.7 2.8 8.1 4.6 12.7 5.1 2.1.2 4.3.2 6.4-.3 8.2-1.6 16.6.4 23.3 5.4l.6.4c.7.5 1.5 1 2.1 1.6 1.8 1.7 3.9 3 6.2 4 1.8.7 3.7 1 5.6 1.1 2.6 0 5.2-.7 7.4-2 .3.3.5.7.7 1 1.3 1.9 2.7 3.6 4.4 5.1 3.2 2.8 7.4 4.3 11.6 4h7.8999999999999995c.9 0 1.5-.3 1.8-.3 1.2.9 2.7 1.4 4.2 1.4.7 0 1.3-.1 1.9-.3l7.3-2.4c2-.6 3.7-2.1 4.6-4.1 1.7-2.9 1.3-6.7-.7-9.8m-231.2-36.4-.6-.8c0-.4-.5-.7-.8-1.1-1-1.3-1.8-2.8-2.5-4.3 2.2 0 4.5.5 7 .6zM1257.9 451.5l-3.8-1.9c-3.4-2.6-6.1-5.9-7.9-9.7-1.1-1.8-2.3-3.8-3.5-5.5s-2.7-3.2-4.3-4.5l-.8-.7c-5-12.5-8.2-25.6-9.6-39-.7-4.8-2.3-9.5-4.7-13.7-6.9-10.3-14.5-20.1-22.7-29.4l-1.7-1.7-.4-.4-27.2-22.6-.4-.3c-3.7-2.8-7.8-5.1-12.3-6.6-7.8-2.5-16.1-2.2-23.7.8h-.5c-2.4 1.2-4.6 2.7-6.7 4-2.9 2.1-6.1 3.8-9.4 5.1h-.6q-4.2 1.8-8.7 3c-7.2 1.7-14 5.1-19.8 9.7l-3.7 3.4c-1.4 1.4-2.8 2.7-3.4 3.1h-1.2c-9.2-.3-18.3 2.8-25.3 8.8h-.3c-4 4.1-8.7 7.4-13.9 9.7-2.3.7-4.8 1.1-7.2 1.2h-.3c-3.4.2-6.7.7-10 1.5-7.9 2.6-15.1 6.8-21.2 12.3-2.7 2.1-4.4 3.4-5.1 3.8l-1.7 1.1c-5.6 4.1-12.3 6.6-19.2 7.2h-.4c-3.8-.4-7.1-2.8-8.5-6.3-1.1-4.5.3-9.2 3.7-12.3 2.3-2.3 5.1-4.6 7.6-6.8 4.6-3.6 8.7-7.6 12.4-12.2 5.1-7.4 4.6-17.3-1.2-24.1-5.2-4.6-11.5-7.6-18.4-8.8h-2l-2.1-.4-3.4-.7c-2.4-.9-4.6-2.1-6.6-3.7-1.6-1.2-3.4-2.3-5.1-3.3l-5.1-2.7-3.1 4.8c-2.4 3.7-3.5 8.1-3 12.5v.4c1.6 9.3 7.6 17.2 16.1 21.2l.9.4c1.8.7 3.6 1.1 5.5 1.3-4.7 3.8-9 8-12.8 12.5-6.9 8.8-8.6 20.6-4.6 31.1 4.6 10.9 14.7 18.5 26.5 19.9 1.7.3 3.4.4 5.1.4 3 0 6-.4 9-1 .1 3 .3 6.1.7 9.1.8 3.7 2 7.2 3.5 10.7v.3c-2.1 1.3-4.4 2.3-6.8 3.1-1.7 0-3.7.3-5.1.4h-2.2c-2.1.2-4 1.1-5.5 2.6-2.1 2.6-3.7 5.7-4.7 8.9-.6 1.6-1.3 3.3-1.9 4.7-.6.8-1.3 1.6-2.1 2.2-1.1-1.7-2.4-3.1-4-4.3-3.1-2.2-7.2-2.2-10.3 0l-1.4.9-.4.3c-2.3 1.5-4.5 3-6.6 4.8-1.6 1.4-2.7 3.3-3.2 5.4-.6.1-1.1.2-1.6.4-4.3 1.8-7.4 5.7-8.2 10.3q-.15 2.55-.6 5.1l-.4.5c-2.8 3.1-2.8 7.9 0 11 3.7 2.3 7.9 3.8 12.2 4.4h1.9l1.4-.6h1.9c1.2.2 2.4.4 3.6.7 2.4.6 4.9.9 7.4 1 2.7 0 5.4-.6 7.8-1.9 3.4-1.9 6.2-4.8 7.9-8.3.5-.8.9-1.5 1.3-2.2h.7c1.4.4 2.7.7 4.2.8 5.8-.1 11.3-2.1 15.8-5.8 1.2-.9 2.3-1.9 3.3-2.9s2.1-1.9 3.3-2.8q2.1-.75 4.2-.6c3.1.1 6.1.5 9.1 1.1 5.8 1.5 11.9.8 17.2-1.9 2.6-1.5 5.1-2.8 7.3-4h.4l3-1.6c4.8-3.2 8.5-7.7 10.8-13 1.1-2.2 2.8-6.3 3.2-7.4h1.7c3.2-.1 6.4-.4 9.5-1 2.1-.3 4-.6 5.4-.7h2c3 0 7.2.4 10.3.7 3 .4 4.5.6 8.1.7h5.3c3.1 0 6.2-.7 9-2.1.7.7 1.8 2.3 2.6 2.9h-.4c-2.2 0-4.4.9-5.9 2.5-2.7-.9-5.6-1.1-8.4-.7-3.5.3-6.9.8-10.3 1.6-2.5.4-4.7 2-5.7 4.3-1.1 2.5-1 5.5.4 7.9 1.8 3.3 3.6 6.3 5.5 9.5l.8 1.4c1.6 2.6 4.5 4.1 7.5 3.9h1.8l.4.6c1.5 3 3.5 5.7 6.1 7.9 3.3 2.7 7.4 4.2 11.6 4.1 1.9 0 3.7-.3 5.5-.8 8.3-2.4 16.3-5.5 24-9.2h3.4c4.3.1 8.4-1.5 11.5-4.4l.4-.4.3-.4c1.4-2.1 2.7-4.2 4-6.3v.8c2 4.9 6.8 8.1 12.1 7.8h.3c4.8-.4 9.5-1.5 14-3.4h.3l1.7-.6h.4c4.2-1.4 8.7-1.6 13-.7h1.4c5.1-.5 10-2.6 13.8-6.1 6.7 7.2 16.2 11.2 26.1 11h3.4c3.3-.7 5.7-3.4 6-6.8.1-.6.1-1.3 0-1.9l1.8-.3c3.2-.6 5.6-3.2 6.1-6.4 1.4-2.8-.2-6.2-3.2-7.7m-89.8-17.3-.9.8c-2.1 1.8-4 3.8-5.6 6.1-1.2-2.1-2.1-3.5-2.7-5.1 2.7-.4 5.3-1.2 7.8-2.3h1.4c.1.2.1.4 0 .5" class="st3"/><path d="M938.9 467.8h-.3c-2.1 1-3.7 2.9-4.4 5.1-.5 6.7-.7 7.4-2.5 9.4-.5.6-.9 1.9-.3 2.5 2.5 1.1 5.1 2 7.8 2.6.6 0 1.1-1.7 2.4-6.3q1.05-3.75 2.4-7.8s0-.4-.5-1.3-3.1-4.2-4.6-4.2m7.3 0c.7.6 1.6 1 2.5 1q1.05 0 2.1-.6c3.3-2.4 5.9-5.6 7.7-9.2.4-1.1-.9-2.2-2.5-3.4-.9-.6-2-.6-2.9 0l-1.8 1.2c-2.1 1.3-4.1 2.8-6 4.4-.8.7-1.2 1.7-1.2 2.8-.1.6 0 1.2.4 1.7l1.8 2.1zm308.9-10.6-4.1-2c-4.4-3-7.9-7.1-10.3-12-1-1.7-2.2-3.6-3.3-5.1-1-1.2-2-2.3-3.2-3.3-.8-.6-1.6-1.4-2.2-2.3-5.4-13.4-8.8-27.4-10.3-41.7-.6-3.9-1.9-7.6-3.8-11-6.7-9.9-14.1-19.4-22-28.4l-1.6-1.6-.4-.4-26.8-22.3c-3.2-2.5-6.9-4.5-10.8-5.8-2.7-.9-5.6-1.4-8.4-1.4-3.7 0-7.3.7-10.7 2.1-2.2 1.1-4.2 2.5-6.2 3.7q-5.1 3.6-10.8 5.7c-3 1.3-6.2 2.4-9.3 3.3-6.3 1.5-12.3 4.3-17.3 8.4l-3.6 3.4c-4.6 4.4-5.1 4.8-8.9 4.8-7.8-.3-15.4 2.3-21.3 7.4-4.6 4.7-10 8.5-16.1 11q-4.2 1.35-8.7 1.5c-3.2.2-6.3.6-9.4 1.4-6.9 2.4-13.3 6.2-18.8 11.1-1.8 1.4-4.4 3.4-5.5 4.2l-1.9 1.2c-6.6 4.7-14.3 7.5-22.4 8.1h-.6c-6.4-.5-12-4.7-14.2-10.7-1.8-6.6.2-13.8 5.1-18.5 2.5-2.5 5.1-4.9 8-7.2q6.3-4.95 11.4-11.1c3.3-5 3-11.5-.8-16.2-4.5-3.6-9.8-6-15.4-6.9h-1.7999999999999998c-2-.4-3.9-.7-5.8-1.1-4.7-2-9.1-4.6-13.2-7.6-1.6 2.6-2.3 5.6-2.1 8.6 1.3 7.1 6 13.2 12.5 16.4l.8.3c1.9.7 3.9 1 5.9 1h2.7q1.95 0 3.9.3c1.4.4 2.4 1.6 2.6 3 0 .9-.3 1.6-1.4 2.5l-3.1 2.6c-5.6 4.3-10.8 9.1-15.4 14.4-5.4 7.1-6.7 16.6-3.4 24.9 3.8 8.8 12 14.8 21.5 15.9 1.5.2 2.9.3 4.4.4 4.7-.2 9.3-.9 13.8-2.3h.4s.6 0 .7 1c0 1.9.3 4.2.3 6.4 0 3.5.3 6.8.6 8.3.8 3.2 1.8 6.4 3.2 9.4.5 1.1.8 1.9.9 2.3.4 1.4.1 2.8-.9 3.8-3.4 2.7-7.3 4.6-11.4 5.7-2 .3-4.2.4-5.7.5h-1.7c-.7.1-1.4.4-1.9.9-1.4 2.1-2.5 4.3-3.2 6.7-.7 1.9-1.5 3.8-2.3 5.4-2.4 3.3-5.5 5.9-9.2 7.6l-2.6 1.5c-1.3 2.2-2.9 4.3-4.7 6.1-1.5 1.2-3.3 1.8-5.1 1.8-2.4 3.3-3.9 7.2-4.4 11.2 0 .6-.3 1.2-.4 1.8v.6h.4c1.4 0 2.9.5 4.4.8 2 .5 4 .8 6.1.9 1.8 0 3.6-.4 5.1-1.2 2.3-1.4 4.1-3.4 5.1-5.8.8-1.6 1.8-3 3-4.3.7-.8 1.7-1.2 2.8-1.2 1.1.1 2.1.3 3.2.6q1.5.45 3 .6c4.2-.1 8.3-1.7 11.5-4.5 1-.8 1.9-1.7 2.9-2.6 1.4-1.4 2.9-2.6 4.5-3.7 2.3-1 4.7-1.5 7.2-1.4 3.5.1 6.9.6 10.3 1.3 1.7.4 3.4.7 5.1.7 2.7 0 5.4-.6 7.8-1.9l7.5-4.1 3.2-1.7c3.6-2.6 6.4-6.2 8.3-10.3 1.1-2.3 3.1-7.1 3.1-7.1l-4.5-3.4v.3c-1.5 2.5-3.1 4.8-4.8 7.1-7.8 10.7-20.5 12.1-30.8 12.1h-2.1c-11.5-.5-22.7 4.2-30.5 12.7-.3.3-.8.4-1.2.1l-.1-.1q-.15-.45 0-.9c.2-.7.4-1.5.8-2.1 8-11.3 21.5-13 32.5-13.2 6.6-.2 13.1-1.7 19.1-4.6 6.3-3.7 11.1-9.6 13.3-16.6 1.1-3.9 1.9-7.9 2.5-11.9.4-3.2 1-6.3 1.7-9.4.1-.4.5-.7.9-.7h.3c.4 0 1.2.4 1.2 1-2 7.2-2 14.7 0 21.9 1.7 3.1 5.2 4.7 8.6 4.2 2.9-.1 5.7-.4 8.5-.9 2.2-.4 4.3-.7 6.1-.8h2.3c3.5.1 6.9.6 10.3 1.4 3 .7 6 1.1 9 1.3h5c2.1.2 4.1-.4 5.8-1.6.9-.8.6-1.9 0-3.4v-.3c-.1-.3-.2-.6-.3-.8-.6-1.9-1.5-4.8 0-6.2.2-.2.5-.3.8-.3s.6.2.7.5c0 .6.3 1.1.5 1.7.5 2.4 1.5 4.7 2.8 6.8 3.8 4.6 8.6 8.3 14 10.9 4.8 2.9 8.1 7.8 8.9 13.4 0 2.8-2.8 4.8-4.8 6.1-3.5 1.9-7.4 3-11.3 3.4-1.4-.1-2.8-.7-3.9-1.5-3.1-2.9-2.8-3.9-4.8-7.3q-1.65-2.85-3.6-5.4c-2-2.1-4.9-3.2-7.7-2.7-3.2.3-6.5.9-9.6 1.6-.7.1-1.3.6-1.6 1.2-.4.7-.4 1.6 0 2.3 1.8 3.2 3.6 6.2 5.4 9.3l.8 1.4c.5.7 1.4 1 2.2.9h3c1.2-.2 2.5.3 3.3 1.2q.9 1.35 1.5 2.7c1.1 2.3 2.7 4.4 4.6 6.1 2.1 1.8 4.8 2.7 7.6 2.7 1.3 0 2.5-.2 3.7-.6 8.4-2.4 16.6-5.6 24.4-9.5h4.3c2.7.1 5.4-.7 7.4-2.5 2.4-3.5 4.6-7.3 6.5-11.1 1.7-2.9 1.7-6.5 0-9.5-3.3-4.8-5.9-9.9-7.8-15.4l-1.7-.6c-1.2-.6-2.6-.9-4-1-1.7 0-2.9.6-3.3 1.5l9 17.8c.8 1.5 1.1 3.2.9 4.9-1.4 3.7-3.5 7-6.1 9.9-.2.2-.5.3-.8.3 0 0-.6 0-.3-1.1 1-3.9 1.6-7.8 1.6-11.9-2.3-5.3-5-10.5-8.2-15.4-1.4-1.8-2.2-3.9-2.3-6.2.1-1 .8-1.8 1.7-2.1 1.3-.4 2.6-.7 3.9-1 3.2-.7 6.5-1.4 7.7-3.2 3.7-5.8 6.2-12.3 7.2-19.1 0-.4.3-1 .8-1s.6 0 .7.8c1.3 7.6-.6 15.4-5.1 21.6-.3.5-.4 1.1-.3 1.7.1.5.4.9.8 1.1 4.3 1 8.8.3 12.6-1.9 3.3-.1 6.7-.4 10-1.1l3-.6c.3.2.5.4.6.7-2.6 3-4.4 6.7-5.1 10.7-.7.8-1.6 1.5-2.4 2.3-3.2 2.3-5.5 5.7-6.3 9.5-.1.8.5 1.4 1.3 1.5h.1c.5 0 1-.2 1.5-.4s1-.4 1.5-.4c.5.1.8.5.9.9l-3.3 5.1c-.9 2-.9 4.3 0 6.3.4 1.2 0 2.1.5 3.1 1.1 2.4 3.6 3.8 6.2 3.6 4.2-.4 8.3-1.4 12.2-3l2.1-.7c5.3-1.9 11-2.3 16.5-1.1 5.1-.9 9.8-3.5 13.3-7.3 2 .3 3.9 1.3 5.1 2.9 5.5 6.2 13.5 9.5 21.8 9.3h1.8c.9 0 1.2-.7 1.2-1.2s-.5-1.4-1.5-1.8l-5.1-2.6c-4.1-2-7.5-5.4-9.5-9.5-1.3-4-3.2-7.9-5.4-11.5-.4-.6-.7-1.1-1.1-1.7-.7-1-1.4-2-1.9-3.1 5.5 2.5 9.8 7 12.1 12.6 3.5 5.9 9.6 9.7 16.5 10.3.9 0 1.7-.1 2.6-.3.6-.1 1.2-.6 1.3-1.2.7-.1 1.2-.7 1.1-1.4-.3-1-.9-1.5-1.7-1.4m-96.4-80.2c0 .5-.5.9-.8.9-.4 0-.5 0-.7-.8-.7-4.8-2-9.5-3.9-14-.5-1-1.1-1.9-1.7-2.7-1.2-1.6-2.3-3.1-1.1-5.1.5-.6 1.3-1 2.2-.9.4 0 .9.1 1.3.3 1.9 1.2 3.3 3 4.1 5.1 2 5.5 2.2 11.5.6 17.2m45 71.8c-.1 1.1-.5 2.1-1.2 2.9-1.9.9-4 1.4-6.2 1.3-1.8 0-2.4-.3-2.8-.9s.3-1.8.3-1.8c1.3-2.8 3.7-5 6.6-6q1.35-.45 2.7 0c1.3.6.8 3.8.6 4.5m12.3-28.2c-.1 1-.4 2-.9 2.9-.3.8-1 1.3-1.8 1.3-1.3 0-1.2-1.6-1.3-1.8 0-2.1-.4-4.2-1-6.3-.9-2-5.1-7.7-7.9-7.5-1.4.5-2.7 1.4-3.5 2.7-1.5 1.9-1.5 2.2-1.9 2.5-.5.3-1.1 0-1.3-1-.4-1.4-.4-2.9 0-4.3.4-1.5 1-2.9 1.7-4.3 0 0 1.3-3.1 1.8-3.8.7-1.2 1.9-1.9 3.2-1.9 1.5 0 2.9.7 3.8 1.9.8 1 1.5 2 2.1 3.1.8 1.3 1.7 2.5 2.8 3.5 1.8 2.1 3.2 4.7 3.9 7.4.4 1.8.5 3.7.3 5.5zm-106.1 36c.8 1.2 1.4 2.5 2 3.9 1 2.3 1.9 4.2 2.9 4.5.5.1 1 .1 1.4 0 2.9-.2 5.6-1.3 7.9-3.1 1.3-1.1.9-1.8.3-2.8-.2-.4-.4-.7-.6-1.1-.5-1.2-1-2.4-1.3-3.6-.7-2.3-1.2-4.2-3.6-3.8-3.5.5-7 .7-10.5.7 0 0-1.2 0-1.6.8s.5 1.8 1.5 2.7c.6.5 1.1 1 1.6 1.6zM1592.5 480.9c-.4-.7-.7-1.4-.9-2.2 0-1-.4-2.1-.5-3.1-.1-1.5-.4-3.1-.9-4.5-.7-1.6-2.3-2.6-4.1-2.6-.6 0-1.2.2-1.7.4-2.5 1.3-4 2.6-3.6 5.4 1.2 3.7 2.2 7.4 3 11.2 0 .6.5 2.7 1.5 2.7l7.2-2.4c.3-.1.6-.3.8-.7.7-1-.1-2.6-.8-4.2m-10.7-17.9q-2.55-3.15-6-5.1c-.9-.6-1.7-1.2-2.3-1.6l-.4-.3c-.5-.4-1-.6-1.6-.6-2.1.3-4 1.7-4.8 3.7 0 1.4 1.9 3.8 4.5 6.9l.6.7c1 1.4 2.5 2.3 4.2 2.5 1.5 0 2.9-.6 4-1.7.6-1 2.7-3.3 1.8-4.5m-169.6-10.2c-1.3.2-2.6.2-4 .3h-3.5c-.7-.1-1.4-.1-2.2 0-1.4 2.3-2.2 4.8-2.3 7.4.4 3 3.4 3.6 5.8 4.1.9.2 1.8.3 2.8.4 1.4.2 2.7-.5 3.3-1.7 1.2-3 2.1-6.1 2.6-9.3q.15-.45 0-.9c-.5-.4-1-.6-1.6-.6zm164.1 21.3c-4.2.3-6.8-3.1-9.3-6.4-.8-1-1.6-2-2.5-3-1.2-1.4-2.6-2.7-4-3.9-1.3-1-2.4-2.1-3.2-3.4-.8-1.9-1.4-3.9-1.8-5.9-.5-1.6-.9-3.2-1.2-4.3v-.7c-.8-2-1.7-4.5-4.3-5.1-1.4-.2-2.7-.3-4.1-.3-3.6.3-7.1-1-9.5-3.5-1.4-2.2-1.4-5.1 0-7.3.4-1 .8-2 1-3 1.4-4.6 1.7-9.5.8-14.2 0-.6-.4-1.3-.6-1.9-.7-1.6-1-3.4-.8-5.1.3-.6.9-1 1.6-.9.7 0 1.5.2 2.2.4l1.4.4c6.6 1.7 13.5 1.2 19.8-1.6 8.4-3.8 13.9-12.1 14.1-21.3-1-10-7.1-19.6-18.9-29.5l-.9-.7c-1.5-1.3-3.4-2.8-3.4-4.3-.1-1.4 3.6-2.3 5.9-2.8l1.4-.4h.6q4.5-.9 8.4-3.3c6.3-5 9.1-13.2 7.1-21v-.5c0-.7-.4-1.6-1-1.6-.2 0-.5.1-.6.3l-.8.7c-1 1-2.1 1.9-3.3 2.6-2.8 1.5-5.8 2.4-9 2.9-2 .4-4 .9-5.9 1.5-6.8 1.5-12.5 6.2-15.4 12.6-.9 3.3-.4 6.9 1.4 9.9 2.9 4.3 6.4 8.2 10.3 11.7 6 5.7 12.2 11.7 13.6 19.8.7 4.9-1.6 9.7-5.8 12.1-2.8 1.6-5.9 2.3-9.1 2.3-4.4 0-8.8-1.1-12.7-3.2-4.9-2.6-9.6-5.5-14.2-8.6-6.7-4.9-14-8.9-21.8-11.9q-5.25-2.1-10.8-3c-5.3-.7-10.4-2.6-14.9-5.5-1.5-1-3-2.1-4.4-3.1-3.7-3.1-8-5.4-12.5-6.9-1.7-.5-3.4-.9-5.1-1.1-2.5-.2-4.9-.9-7-2.3l-3-2.2c-3.5-2.7-7.3-5.2-11.2-7.3-6.7-3.1-13.8-5.3-21.1-6.6-2.3-.8-4.3-2.3-5.6-4.4q-1.5-2.1-3.6-3.6c-5-4.7-11.4-7.5-18.3-7.8h-1.9c-3.6.7-7 2.5-9.6 5.1-6.9 6.1-14.4 11.5-21.6 16.7-11.3 7.6-21.8 16.4-31.3 26.2-9.3 9.6-12.7 21.7-16 33.3l-1.5 5.1c-.9 3.2-1.7 6.5-2.5 9.6-4.3 17.2-8.7 34.3-25.7 45.5-.7.4-.9 1.3-.4 2 .2.3.4.5.7.6 5.4 1.5 11.2-.3 14.8-4.6 4.5-5.1 6.7-10.3 12-15.9 0 0 .8-.7 1.3-.6s.5.3.4 1c-.8 2.2-1.9 4.2-3.3 6.1-1.5 1.9-2.6 4-3.4 6.3-2.3 5-5.8 9.2-10.3 12.4-.4.2-.7.5-1 .9-.4.5-.4.7-.4.7 0 1.1.8 1.7 2.5 1.8 9.6 0 16.5-6.8 23.1-13.4.3-.3.7-.5 1.1-.4.4-.1.7-.1 1.1 0 .8.6 1.5 1.2 2.3 1.9 2 2.1 4.5 3.7 7.3 4.5q4.95-.75 9.9-.9h2.6c3.5 1.1 7 2.4 10.3 3.6 2.4.9 5.1 1.8 7.3 2.7 3.2 0 5.5-3.1 7.2-5.7.6-1.8.6-3.7 0-5.5-.2-1-.4-2.1-.4-3.2.7-.2 1.5-.2 2.3 0 .8.1 1.5.1 2.3 0 1.1-.2 1.7-1.3 1.5-2.3-.7-2.8-2-5.4-3.8-7.6-1.4-1.9-2.6-4.1-3.4-6.3-1.3-2.9-3.2-5.6-5.5-7.7-2.6-2.3-4.5-5.3-5.6-8.6v-1c0-.3.9 0 .9 0 1.1.8 2.3 1.8 3.4 2.7 3.3 3.3 7.5 5.6 12 6.7q6.75.9 13.5.6c1-.1 1.7-1 1.6-2 0-.1 0-.2-.1-.3-2-4-3.6-8.2-4.8-12.5-2-6.2-2.3-12.8-.9-19.1.1-.5.6-.9 1.1-.9.7.3 1.2 1 1.3 1.7v.9c.6 9.2 1.2 17.9 6.9 25.3 1.5 2.1 3.5 3.8 5.7 4.9 1.5.7 2.9 1.7 4.1 2.9 1.2 1.7 1.4 3.8.6 5.6l-6.9 10.3c-1.7 2.2-3 4.7-3.8 7.3-.4 2.5-.4 5 0 7.4v.6c-.2-.1-.4-.3-.5-.6-2.5-3.7-3.3-8.3-1.9-12.6.9-2.1 6.5-10.3 8.2-12.7.5-.8.9-1.7.5-2.3-1.8-1.2-3.7-2.1-5.8-2.5-.9.4-1.7 1.1-2.2 2l-.4.6-8.5 15.4v.6c-.6 1.5-.8 3.1-.5 4.7.5 2.2 1.1 4.4 1.7 6.6 0 .5.3 1 .4 1.5.5 2.3 1.4 4.6 2.7 6.6.7.9 1.8 1.3 2.9 1.3h1.9c1-.2 2.1-.2 3.1 0 1.2.4 2.3 1.2 3.1 2.3s2 2 3.3 2.5c2.6.9 5.1 1.6 8.1 2.3 3.6.9 7.2 2 10.7 3.2 2 .7 4.1 1.1 6.2 1.2 2.1 0 4.1-.8 5.6-2.3 2.4-1.9 3.9-4.6 4.4-7.6.6-2.9 1.5-3.1 3.6-3.2.8 0 1.5-.1 2.2-.4 2.4-1.9 4.4-4.4 5.7-7.2l1.3-2.3c.4-.6.6-1.2.7-1.9 0-1.1-.9-2.1-2.1-2.1h-12.1c-3.7 0-5.1 3.8-6.7 6.9-.4 1.2-1 2.3-1.6 3.4-1.1 1.8-3 2.9-5.1 2.8q-1.5-.15-3-.6c-5.1-1.2-10-2.5-12-7.3-.4-1.4-.2-2.9.7-4q4.35-5.25 9.6-9.6c5.3-1.3 9.8-4.6 12.6-9.3.5-.8.9-1.7 1.1-2.6.3-1.4 1-2.6 2.1-3.5.8-.4 1.4-.3 1.6.4.2 2.6-.3 5.1-1.4 7.4l-.6 1.6v.4h.4q2.1.15 4.2 0c4.9-.1 9.7-.7 14.5-1.7 4.7-1 9.5-1.6 14.3-1.7h1.6c2.2 0 4.3 0 6.4.4 1.7.2 3.4.4 5.1.5h2.1c5.3.3 10.3-2.8 12.3-7.7 1.3-6.6 1.2-13.3-.4-19.9v-.8c0-.4 0-.7.5-.9s1.2 0 1.5.8c2.2 6.4 3.7 13 4.5 19.7 1 5.7 3.3 11.2 6.6 16 4.6 6.8 12.3 10.8 20.5 10.6 2-.1 3.9-.3 5.9-.6.9-.1 1.8-.1 2.8 0 10.6 0 20.7 4.9 27 13.4.1.1.1.3 0 .4-.1.4-.5.7-.9.5h-.1l-.9-.7c-5.6-5.3-12.6-8.9-20.2-10.5-1.5-.3-2.9-.4-4.4-.4-2.2 0-4.5.2-6.7.5-2.1.3-4.2.4-6.3.5-2.4 0-4.9-.4-7.1-1.3-8.7-3.9-15.4-11-18.8-19.9-.2-.4-.6-.6-1-.6-.3 0-.5.1-.8.3-1 .7-1.2 1-1.4 1.6.2 2.4.6 4.8 1.1 7.2.7 6.3 4.1 11.9 9.3 15.4 3.3 2.7 7.3 4.5 11.6 5.1 1.3.2 2.7.2 4 0 2.3-.5 4.6-.8 7-.8 7.7.1 15.2 2.6 21.4 7.2 1.1.7 2.1 1.4 3 2.3q1.95 1.95 4.5 3c1.1.4 2.2.6 3.4.7 2 0 4-.7 5.6-1.9.7-.4 1.6-.6 2.4-.6 2.3 0 3.6 1.8 5.1 4.1 1 1.6 2.2 3 3.6 4.3 2 1.7 4.6 2.5 7.3 2.3h8.2v-.3c-.2-4.8-1.3-9.4-3.3-13.7zm-241.1-21.6c-.6.9-1.7 1.3-2.8 1.2-1.1 0-2.2-.3-3.1-.9-1.8-1.4-2.9-3.6-2.9-6-.1-.7.2-1.5.8-1.9q.6-.3 1.2-.3c2.2.2 4.2 1.2 5.7 2.8 0 0 1.9 2.8.8 4.8zm2.4-38c-.5.9-1.5 1.3-2.5.9-.9-.5-1.7-1.3-2.1-2.3-.6-1-1.1-1.9-2.5-1.8-1.2.2-2.3.7-3.1 1.5-.5.4-2.5 1.8-3 2.3-2.8 1.9-4.9 4.6-6.1 7.8 0 1.1 0 1.1-.4 1.7 0 1.1-.5 2.1-1.3 2.9h-.5c-.4 0-.9-.2-1.2-.5-.4-.2-.6-.6-.6-1.1-.6-5.2 1.3-10.3 5.1-13.9 2.4-2.1 4.5-4.5 6.4-7.1.9-1.2 1.9-2.5 2.9-3.6s2 0 4.1 2.2c1.9 2.7 3.5 5.5 4.8 8.6.1.8-.1 1.6-.6 2.2zm45.3-63.5-3.2 3c-3.9 3.3-7.3 7.1-10.3 11.2-1.2 1.7-2.2 3.6-3 5.5 0 0-.3.6-.7.6q-.3 0-.6-.3c-.5-2.8-.2-5.8.8-8.5 2.8-6.6 7.4-12.3 13.2-16.4.7-.4 1.5-.7 2.3-.7 1.1-.1 2 .5 2.5 1.5.5 1.4-.1 3-1.4 3.7z" class="st2"/><linearGradient id="SVGID_3_" x1="1028.214" x2="1028.214" y1="2658.6401" y2="2866.7285" gradientTransform="translate(-228.08 -2658.63)" gradientUnits="userSpaceOnUse"><stop offset="0" style="stop-color:#8c8c8b"/><stop offset="0.5" style="stop-color:#9b9b9a"/><stop offset="0.66" style="stop-color:#868686"/><stop offset="1" style="stop-color:#4d4d4c"/></linearGradient><path d="M690.8 135.5h105.7l-55.8-90.1L638.1 208h-46.8L716.2 12.7c5.5-8 14.7-12.8 24.5-12.7 9.6-.1 18.6 4.5 24.1 12.4L889.9 208h-46.7l-22-36.3h-107l-23.3-36.2m484.9 36.3V2.1h-39.7v186.3c0 5.1 2.1 10.1 5.8 13.6 3.8 3.9 9 6.1 14.4 6.1h180.5l23.5-36.4h-184.7m-655.4-30.3c38.5-1 68.8-33.1 67.8-71.5-1-37-30.8-66.7-67.8-67.8H347v206h39.6V38.4h131.3c18.4 0 33.3 14.9 33.3 33.3S536.3 105 517.9 105H406.2l118.3 103H582l-79.5-66.7h18.1m-417.1 66.8h119.7c56.9 0 103-46.1 103-103s-46.1-103-103-103H103.3C46.4 2.1.3 48.2.3 105.1s46.1 103 103 103m117.1-36.3H106c-36.8 0-66.7-29.9-66.7-66.7S69.1 38.4 106 38.4h114.4c36.8 0 66.7 29.9 66.7 66.7s-29.9 66.7-66.7 66.7M972.6 208h122.3l23.3-36.3H975.3c-36.8 0-66.7-29.9-66.7-66.7s29.9-66.7 66.7-66.7h116.2L1114.9 2H972.7C915.8.7 868.6 45.8 867.4 102.7c-1.3 56.9 43.8 104.1 100.7 105.3 1.5.1 3.1.1 4.5 0m484.5-36.2c-29.8 0-56.1-19.8-64.2-48.5h169.3l23.3-36.3h-192.6c8.1-28.7 34.3-48.5 64.2-48.5h116.3L1596.6 2h-142.1c-56.9 0-103 46.1-103 103s46.1 103 103 103h122.3l23.2-36.3z" style="fill:url(#SVGID_3_)"/></svg>